<svg xmlns="http://www.w3.org/2000/svg" id="Layer_2" data-name="Layer 2" viewBox="0 0 92.88 76.11"><defs><style>.cls-1{fill:#231f20}.cls-2{fill:#fff}.cls-3{stroke-miterlimit:10;fill:none;stroke:#fff}</style></defs><g id="blahg"><g id="blahg_copy" data-name="blahg copy"><path d="M51.4 61.73c-3.81 0-7.6-.44-11.27-1.3-11.21-2.63-17.17-7.34-17.72-13.99-1.05-12.6 18.28-26.48 25.81-29.64 4.01-1.68 7.86-2.53 11.44-2.53 6.07 0 11.32 2.37 15.62 7.04 6.66 7.25 9.12 18.2 8.68 23.33-.67 7.9-15.04 17.09-32.55 17.09Z" class="cls-2"/><path d="M51.4 61.73c-3.81 0-7.6-.44-11.27-1.3-11.21-2.63-17.17-7.34-17.72-13.99-1.05-12.6 18.28-26.48 25.81-29.64 4.01-1.68 7.86-2.53 11.44-2.53 6.07 0 11.32 2.37 15.62 7.04 6.66 7.25 9.12 18.2 8.68 23.33-.67 7.9-15.04 17.09-32.55 17.09Z" class="cls-3"/><path d="M82.08 75.11 1 62.59 6.2 1l3.99.34L5.3 59.2l73.39 11.34 8.63-60.65-69.46-4.88.28-3.99 73.74 5.19z" class="cls-2"/><path d="M82.08 75.11 1 62.59 6.2 1l3.99.34L5.3 59.2l73.39 11.34 8.63-60.65-69.46-4.88.28-3.99 73.74 5.19z" style="fill:none;stroke:#fff;stroke-linecap:round;stroke-linejoin:round;stroke-width:2px"/><path d="M14.03 48.71c-.95 0-2.12-.09-2.95-.73-.07-.02-.15-.04-.25-.05-.95-.18-1.73-.57-2.28-1.18-.71-.77-1.12-1.83-1.29-3.24-.12-1.04-.25-3.62-.4-7.9-.06-1.82-.16-3.62-.29-5.35-.14-1.82-.24-3.65-.3-5.45-.03-.62-.06-1.39-.08-2.26-.03-1.49.11-2.64.87-3.42l.1-.1c.58-.52 1.32-.81 2.13-.82h.27l.15.01c.96.12 1.8.69 2.37 1.58.44.69.69 1.53.78 2.58v.14c.01.09.06.63.16 1.56.02.18.03.32.05.43.18.45.23 1.1.28 3.35.02.78.04 1.47.08 2.06.71-.14 1.44-.21 2.19-.23h.24c1.98 0 2.88.68 3.27 1.39.63.4 1.1 1.08 1.42 2.02.07.22.11.3.12.31.2.33.34.62.45.93.12.33.21.74.28 1.29.03.21.06.35.08.43.35.51.53 1.17.54 2.01.02.9-.16 1.67-.52 2.3l-.05.1c-.08 1.04-.31 2.05-.71 3.07-.37 1-.99 1.99-1.82 2.92-.91 1.02-1.8 1.66-2.71 1.95l-.1.03c-.61.16-1.21.25-1.78.26h-.29Zm-.2-9.81a8.426 8.426 0 0 0 .01 1.54h.14c.07-.08.15-.18.26-.32.39-.49.51-.71.54-.77s.07-.17.12-.64c.03-.2.06-.37.08-.5-.07.02-.14.03-.21.04-.09.05-.26.16-.54.36l-.08.06c-.14.09-.24.17-.32.23" class="cls-2"/><path d="M14.03 48.71c-.95 0-2.12-.09-2.95-.73-.07-.02-.15-.04-.25-.05-.95-.18-1.73-.57-2.28-1.18-.71-.77-1.12-1.83-1.29-3.24-.12-1.04-.25-3.62-.4-7.9-.06-1.82-.16-3.62-.29-5.35-.14-1.82-.24-3.65-.3-5.45-.03-.62-.06-1.39-.08-2.26-.03-1.49.11-2.64.87-3.42l.1-.1c.58-.52 1.32-.81 2.13-.82h.27l.15.01c.96.12 1.8.69 2.37 1.58.44.69.69 1.53.78 2.58v.14c.01.09.06.63.16 1.56.02.18.03.32.05.43.18.45.23 1.1.28 3.35.02.78.04 1.47.08 2.06.71-.14 1.44-.21 2.19-.23h.24c1.98 0 2.88.68 3.27 1.39.63.4 1.1 1.08 1.42 2.02.07.22.11.3.12.31.2.33.34.62.45.93.12.33.21.74.28 1.29.03.21.06.35.08.43.35.51.53 1.17.54 2.01.02.9-.16 1.67-.52 2.3l-.05.1c-.08 1.04-.31 2.05-.71 3.07-.37 1-.99 1.99-1.82 2.92-.91 1.02-1.8 1.66-2.71 1.95l-.1.03c-.61.16-1.21.25-1.78.26h-.29Zm-.2-9.81a8.426 8.426 0 0 0 .01 1.54h.14c.07-.08.15-.18.26-.32.39-.49.51-.71.54-.77s.07-.17.12-.64c.03-.2.06-.37.08-.5-.07.02-.14.03-.21.04-.09.05-.26.16-.54.36l-.08.06c-.14.09-.24.17-.32.23Z" class="cls-3"/><path d="M26.48 48.04c-.95 0-1.75-.23-2.39-.69-.59-.42-1.08-1.05-1.47-1.92-.29-.68-.58-1.92-.85-6.6-.06-1.13-.13-1.96-.19-2.47v-.1c-.29-3.62-.44-5.81-.46-6.69l-.02-.91c-.01-.55-.02-1.29-.03-2.19 0-.89-.02-1.78-.04-2.68-.11-5.5 0-6.07.1-6.46.26-1.06 1.09-1.84 2.23-2.09l.19-.04h.09c.13-.04.25-.06.35-.08.25-.05.42-.06.53-.06 2.55 0 2.96 3.21 3.18 4.93.18 1.4.28 2.39.29 3.03l.03 1.27c.06 3.23.13 5.98.2 8.25.16 5.24.24 6.98.29 7.52.01.13.02.24.04.34.87.4 1.32 1.28 1.5 1.62.41.79.61 1.51.62 2.22.02 1.06-.48 2.06-1.4 2.81-.81.65-1.7.98-2.67 1h-.12Z" class="cls-2"/><path d="M26.48 48.04c-.95 0-1.75-.23-2.39-.69-.59-.42-1.08-1.05-1.47-1.92-.29-.68-.58-1.92-.85-6.6-.06-1.13-.13-1.96-.19-2.47v-.1c-.29-3.62-.44-5.81-.46-6.69l-.02-.91c-.01-.55-.02-1.29-.03-2.19 0-.89-.02-1.78-.04-2.68-.11-5.5 0-6.07.1-6.46.26-1.06 1.09-1.84 2.23-2.09l.19-.04h.09c.13-.04.25-.06.35-.08.25-.05.42-.06.53-.06 2.55 0 2.96 3.21 3.18 4.93.18 1.4.28 2.39.29 3.03l.03 1.27c.06 3.23.13 5.98.2 8.25.16 5.24.24 6.98.29 7.52.01.13.02.24.04.34.87.4 1.32 1.28 1.5 1.62.41.79.61 1.51.62 2.22.02 1.06-.48 2.06-1.4 2.81-.81.65-1.7.98-2.67 1h-.12Z" class="cls-3"/><path d="M37.87 49.83c-.89 0-1.69-.13-2.39-.38-3.57-1.33-5.42-4.79-5.53-10.28q-.015-1.005 0-1.56c.08-1.89.29-3.43.64-4.71.37-1.35.97-2.59 1.77-3.69 1.19-1.65 2.16-2.67 3.05-3.21.82-.52 1.75-.8 2.71-.82 1.33 0 2.73.47 4.35 1.44 1.09.68 1.89 1.38 2.47 2.17.53.73 1.07 1.82 1.69 3.45.71 1.76 1.23 2.98 1.53 3.61.46.94.78 1.74.98 2.42.03.01.06.03.09.04.4.19.57.22.58.22h.02c.54 0 1.35.17 2.11.93.6.61.92 1.35.94 2.14 0 .12 0 .24-.02.36.12.3.19.64.2.98.02.86-.25 2.09-1.63 3.13-.71.5-1.49.75-2.37.77h-.11c-.97 0-1.96-.26-2.94-.78-.32-.17-.62-.35-.9-.56-.25.37-.52.74-.83 1.11-.82 1-1.63 1.72-2.46 2.2-1.07.63-2.34.97-3.76.99h-.2Zm-.55-8.55c.13.05.25.11.37.18.27-.26.68-.57 1.21-.72.03-.03.06-.05.1-.08.19-.16.38-.32.58-.46.11-.34.28-.61.45-.81.05-.22.13-.42.23-.62.02-.18.04-.58.02-1.36 0-.41-.02-.66-.04-.8-.22-.43-.42-1.02-.65-1.94-.08-.29-.14-.51-.2-.69-.21-.03-.41-.09-.59-.16-.16.06-.33.1-.5.13-.05.18-.12.36-.22.54-.16.27-.42.58-.83.82.03.23.02.47-.02.7-.06.29-.16.55-.32.83.09.42.12.9.13 1.45 0 .46 0 .84-.02 1.13-.01.25-.01.58 0 .98 0 .12 0 .22.01.29.11.18.21.38.29.6Z" class="cls-2"/><path d="M37.87 49.83c-.89 0-1.69-.13-2.39-.38-3.57-1.33-5.42-4.79-5.53-10.28q-.015-1.005 0-1.56c.08-1.89.29-3.43.64-4.71.37-1.35.97-2.59 1.77-3.69 1.19-1.65 2.16-2.67 3.05-3.21.82-.52 1.75-.8 2.71-.82 1.33 0 2.73.47 4.35 1.44 1.09.68 1.89 1.38 2.47 2.17.53.73 1.07 1.82 1.69 3.45.71 1.76 1.23 2.98 1.53 3.61.46.94.78 1.74.98 2.42.03.01.06.03.09.04.4.19.57.22.58.22h.02c.54 0 1.35.17 2.11.93.6.61.92 1.35.94 2.14 0 .12 0 .24-.02.36.12.3.19.64.2.98.02.86-.25 2.09-1.63 3.13-.71.5-1.49.75-2.37.77h-.11c-.97 0-1.96-.26-2.94-.78-.32-.17-.62-.35-.9-.56-.25.37-.52.74-.83 1.11-.82 1-1.63 1.72-2.46 2.2-1.07.63-2.34.97-3.76.99h-.2Zm-.55-8.55c.13.05.25.11.37.18.27-.26.68-.57 1.21-.72.03-.03.06-.05.1-.08.19-.16.38-.32.58-.46.11-.34.28-.61.45-.81.05-.22.13-.42.23-.62.02-.18.04-.58.02-1.36 0-.41-.02-.66-.04-.8-.22-.43-.42-1.02-.65-1.94-.08-.29-.14-.51-.2-.69-.21-.03-.41-.09-.59-.16-.16.06-.33.1-.5.13-.05.18-.12.36-.22.54-.16.27-.42.58-.83.82.03.23.02.47-.02.7-.06.29-.16.55-.32.83.09.42.12.9.13 1.45 0 .46 0 .84-.02 1.13-.01.25-.01.58 0 .98 0 .12 0 .22.01.29.11.18.21.38.29.6Z" class="cls-3"/><path d="M64.57 47.48c-1.29 0-2.1-1.05-2.37-1.4-.41-.58-.67-1.17-.82-1.81-.07-.29-.19-.89-.46-2.78-.23-1.69-.38-2.61-.48-3.12-.03.08-.06.15-.08.22 0 .08-.01.23 0 .48l.03 1.6c.07 3.23-.01 3.8-.12 4.2l-.09.34-.2.29c-.27.39-.66.76-1.18 1.13l-.07.05-.07.04c-.54.32-1.09.49-1.63.5-.82 0-2.23-.3-3.17-2.27-.5-1.03-.75-2.29-.78-3.83l-.03-1.35c-.04-2.16-.14-5.4-.31-9.9-.17-4.77-.25-6.09-.27-6.45-.09-.36-.15-.85-.21-1.73-.06-.82-.13-1.26-.18-1.48-.22-.99.12-1.99.92-2.7.1-.2.23-.39.39-.56.3-.31.84-.69 1.73-.71 1.17 0 2.15.41 2.94 1.17.89.8 1.11 1.75 1.12 2.4 0 .28 0 .54-.02.76 0 .06 0 .14-.02.23 0 .37.06 1.15.29 2.86.22 1.66.35 3.12.38 4.34h.41c.56 0 .97.06 1.33.2.55.2 1.24.59 2.21 1.26.62.42 1.22.83 1.62 1.34.38.24.7.57.92.98.15.27.27.58.39.96.03.11.06.19.08.25.92 1.94 1.47 4.4 1.62 7.29.05.9.09 1.29.11 1.44q.105.33.12.72c.01.64-.17 1.34-.57 2.22-.39.86-.82 1.45-1.32 1.87-.46.42-1.16.94-2.08.96h-.05Z" class="cls-2"/><path d="M64.57 47.48c-1.29 0-2.1-1.05-2.37-1.4-.41-.58-.67-1.17-.82-1.81-.07-.29-.19-.89-.46-2.78-.23-1.69-.38-2.61-.48-3.12-.03.08-.06.15-.08.22 0 .08-.01.23 0 .48l.03 1.6c.07 3.23-.01 3.8-.12 4.2l-.09.34-.2.29c-.27.39-.66.76-1.18 1.13l-.07.05-.07.04c-.54.32-1.09.49-1.63.5-.82 0-2.23-.3-3.17-2.27-.5-1.03-.75-2.29-.78-3.83l-.03-1.35c-.04-2.16-.14-5.4-.31-9.9-.17-4.77-.25-6.09-.27-6.45-.09-.36-.15-.85-.21-1.73-.06-.82-.13-1.26-.18-1.48-.22-.99.12-1.99.92-2.7.1-.2.23-.39.39-.56.3-.31.84-.69 1.73-.71 1.17 0 2.15.41 2.94 1.17.89.8 1.11 1.75 1.12 2.4 0 .28 0 .54-.02.76 0 .06 0 .14-.02.23 0 .37.06 1.15.29 2.86.22 1.66.35 3.12.38 4.34h.41c.56 0 .97.06 1.33.2.55.2 1.24.59 2.21 1.26.62.42 1.22.83 1.62 1.34.38.24.7.57.92.98.15.27.27.58.39.96.03.11.06.19.08.25.92 1.94 1.47 4.4 1.62 7.29.05.9.09 1.29.11 1.44q.105.33.12.72c.01.64-.17 1.34-.57 2.22-.39.86-.82 1.45-1.32 1.87-.46.42-1.16.94-2.08.96h-.05Z" class="cls-3"/><path d="M74.96 59.21c-.76 0-1.81 0-2.53-.61-.93-.26-1.81-1.09-2.84-2.7-.96-1.5-1.42-2.69-1.44-3.74s.61-1.93 1.17-2.58l1.96-2.17 2.25 1.69c.66.46 1.27 1.08 1.84 1.91.11-.08.23-.17.37-.27.27-.19.53-.36.81-.5.14-.38.22-.74.24-1.11 0-.21.01-.5.04-.87.02-.28.03-.48.03-.61 0-.21-.03-.55-.13-1.08-.54.21-1.16.33-1.84.38h-.21c-2.14 0-4.96-1.06-6.2-6.11-.24-1.09-.38-2.3-.4-3.64-.06-3.12.34-5.82 1.2-8.04.46-1.14.95-1.97 1.5-2.56.59-.63 1.43-1.15 2.57-1.59.62-.26 1.34-.4 2.1-.42h.14c1.24 0 2.28.33 3.11.98.31.24.8.7 1.84 2.05a9.15 9.15 0 0 1 1.6 3.55c.29 1.54.33 2 .33 2.28s.03.57.08.89c.13.61.3 1.99.51 6.82.02.9.08 1.15.08 1.17.11.26.17.62.18 1 0 .1 0 .31-.03.62 0 .07 0 .13-.01.18.14.4.24.94.32 1.75.06.57.09.93.12 1.07.15.85.14 1.52-.04 2.09-.02.06-.08.28-.1 1.01-.04.94-.25 1.84-.63 2.69-.16.35-.22.52-.24.59-.05 1.25-.58 2.26-1.47 2.85q-.57 1.125-1.44 1.53c-.32.45-.78.77-1.33.91-.72.51-1.77.58-3.08.6h-.42Zm-.31-21.11c.06.13.12.26.17.39.05-.05.21-.19.24-.21.05-.32.16-.75.34-1.35.16-.49.23-.92.22-1.37 0-.36-.02-.66-.04-.91-.05-.97-.14-1.4-.18-1.54l-.09-.12c-.06.18-.13.35-.23.51.02.32-.02.73-.2 1.13v.07c.01.65-.13 1.31-.43 2.05 0 .01 0 .02-.01.03.14.34.22.7.23 1.06v.26Z" class="cls-2"/><path d="M74.96 59.21c-.76 0-1.81 0-2.53-.61-.93-.26-1.81-1.09-2.84-2.7-.96-1.5-1.42-2.69-1.44-3.74s.61-1.93 1.17-2.58l1.96-2.17 2.25 1.69c.66.46 1.27 1.08 1.84 1.91.11-.08.23-.17.37-.27.27-.19.53-.36.81-.5.14-.38.22-.74.24-1.11 0-.21.01-.5.04-.87.02-.28.03-.48.03-.61 0-.21-.03-.55-.13-1.08-.54.21-1.16.33-1.84.38h-.21c-2.14 0-4.96-1.06-6.2-6.11-.24-1.09-.38-2.3-.4-3.64-.06-3.12.34-5.82 1.2-8.04.46-1.14.95-1.97 1.5-2.56.59-.63 1.43-1.15 2.57-1.59.62-.26 1.34-.4 2.1-.42h.14c1.24 0 2.28.33 3.11.98.31.24.8.7 1.84 2.05a9.15 9.15 0 0 1 1.6 3.55c.29 1.54.33 2 .33 2.28s.03.57.08.89c.13.61.3 1.99.51 6.82.02.9.08 1.15.08 1.17.11.26.17.62.18 1 0 .1 0 .31-.03.62 0 .07 0 .13-.01.18.14.4.24.94.32 1.75.06.57.09.93.12 1.07.15.85.14 1.52-.04 2.09-.02.06-.08.28-.1 1.01-.04.94-.25 1.84-.63 2.69-.16.35-.22.52-.24.59-.05 1.25-.58 2.26-1.47 2.85q-.57 1.125-1.44 1.53c-.32.45-.78.77-1.33.91-.72.51-1.77.58-3.08.6h-.42Zm-.31-21.11c.06.13.12.26.17.39.05-.05.21-.19.24-.21.05-.32.16-.75.34-1.35.16-.49.23-.92.22-1.37 0-.36-.02-.66-.04-.91-.05-.97-.14-1.4-.18-1.54l-.09-.12c-.06.18-.13.35-.23.51.02.32-.02.73-.2 1.13v.07c.01.65-.13 1.31-.43 2.05 0 .01 0 .02-.01.03.14.34.22.7.23 1.06v.26Z" class="cls-3"/></g><path d="M48.99 18.65c-11.25 4.71-44.17 31.44-8.4 39.84 20.92 4.91 40.67-5.75 41.37-14.02s-7.49-36.5-32.97-25.82" style="fill:#ffdeb4"/><path d="M8.03 3.17 3.15 60.9l77.24 11.92L89.6 8.05 20.29 3.17" style="fill:none;stroke:#231f20;stroke-linecap:round;stroke-linejoin:round;stroke-width:2px"/><path d="M8.5 20.53c.22-.2.5-.31.83-.31h.12c.37.05.69.27.95.67s.41.96.47 1.66c0 .08.05.66.16 1.73.05.53.11.86.17.97s.11 1 .15 2.66c.03 1.52.1 2.7.2 3.54q.15.975.36.96c.08 0 .17-.02.25-.05 1.09-.42 2.25-.64 3.5-.66 1.14-.02 1.72.15 1.75.51.05.23.21.39.51.5s.54.45.74 1.04c.09.28.19.52.31.71.12.2.21.38.28.56s.12.47.17.86c.1.7.22 1.12.37 1.26.15.17.23.49.24.97.01.53-.07.96-.25 1.27-.2.23-.3.46-.3.68q-.03 1.305-.6 2.76c-.29.79-.78 1.56-1.45 2.31s-1.28 1.21-1.83 1.39c-.45.12-.89.19-1.3.2-1.12.02-1.8-.1-2.06-.38-.15-.14-.48-.26-1-.36-.54-.1-.94-.29-1.19-.57-.4-.44-.66-1.15-.77-2.12q-.165-1.455-.39-7.74c-.06-1.83-.16-3.64-.3-5.44s-.24-3.58-.29-5.35c-.03-.65-.06-1.39-.08-2.24-.02-1.1.08-1.76.3-1.99Zm7.7 15.46q-.12 0-.39-.06t-.39-.06c-.12 0-.25.05-.37.13-.2.17-.41.26-.62.26q-.435 0-1.41.75c-.47.32-.78.57-.92.76s-.23.46-.26.83c-.03.39-.05.75-.04 1.06.03 1.29.16 2.12.39 2.48.15.22.65.32 1.5.31.62-.01 1.02-.06 1.21-.15s.49-.4.91-.95q.54-.69.75-1.11c.14-.28.24-.71.32-1.27.09-.56.14-.93.13-1.1 0-.28-.11-.63-.3-1.05-.24-.56-.41-.83-.51-.83M23.81 17.18c.08 0 .18-.02.29-.05s.21-.05.29-.07.14-.02.19-.02h.03c.48-.01.85 1.05 1.12 3.19q.255 1.98.27 2.82l.03 1.27c.06 3.23.13 5.99.2 8.27.13 4.27.23 6.82.29 7.63.07.81.2 1.33.39 1.55.25.28.48.41.69.41.19 0 .41.25.67.75s.39.95.4 1.34c0 .45-.21.86-.66 1.22s-.93.55-1.45.56c-.56.01-.99-.09-1.29-.31-.31-.22-.58-.59-.82-1.12-.26-.61-.49-2.58-.68-5.9-.07-1.18-.13-2.05-.21-2.61-.28-3.57-.43-5.76-.44-6.57 0-.06 0-.36-.02-.91-.01-.55-.02-1.27-.03-2.17 0-.9-.02-1.8-.04-2.7-.07-3.6-.06-5.57.04-5.91.08-.34.32-.56.73-.65ZM36.45 27.73c.55-.35 1.13-.53 1.73-.54.87-.02 1.96.37 3.29 1.16.84.52 1.47 1.06 1.88 1.63.42.57.9 1.56 1.44 2.99.74 1.84 1.27 3.1 1.6 3.77.41.84.69 1.53.85 2.09.11.36.23.62.36.77q.195.225.75.51c.61.3 1.09.44 1.44.43.27 0 .52.11.75.34s.35.49.36.77c0 .08 0 .16-.03.21-.06.23-.03.46.08.72a.7.7 0 0 1 .13.42c.01.56-.27 1.06-.84 1.49q-.495.345-1.2.36c-.66.01-1.35-.17-2.08-.55-.72-.38-1.3-.87-1.72-1.48l-.58-.83-.44 1.06c-.32.74-.8 1.51-1.46 2.31s-1.29 1.38-1.91 1.73c-.8.47-1.74.71-2.81.73-.72.01-1.35-.07-1.87-.26-2.71-1.01-4.12-3.83-4.21-8.44q-.015-.93 0-1.44c.07-1.72.26-3.13.57-4.25s.79-2.13 1.46-3.05q1.515-2.1 2.46-2.67Zm3.09 14.92c.15 0 .4-.16.77-.48s.62-.48.77-.48c.25 0 .37-.16.36-.47 0-.34.07-.55.24-.64.18-.12.28-.26.27-.43 0-.22.05-.42.17-.59.14-.2.2-.93.17-2.2-.02-.93-.08-1.45-.19-1.56-.15-.19-.34-.74-.56-1.63-.22-.84-.42-1.42-.59-1.74s-.37-.48-.6-.47h-.06s-.11.01-.2.03-.15.02-.17.02c-.39 0-.59-.13-.6-.41 0-.2-.14-.29-.41-.29-.43 0-.65.13-.65.35q0 .3-.3.3c-.3 0-.38-.09-.53-.28s-.26-.15-.34.13-.21.43-.39.43c-.23 0-.33.22-.3.64.03.31.01.51-.04.59s-.18.14-.38.18c-.33.06-.49.19-.49.39 0 .25-.08.45-.27.6-.2.17-.23.37-.08.59.11.17.15.3.13.4q-.03.15-.27.45c-.26.29-.32.56-.17.81.13.17.2.64.22 1.43 0 .39 0 .72-.01.97-.01.31-.02.69 0 1.14.01.62.07 1 .18 1.13.15.14.27.4.36.79.07.39.31.63.73.7.42.08.63.24.63.49 0 .2.06.31.16.33.1.03.2-.06.27-.26.08-.17.29-.2.62-.1.29.08.58-.04.86-.35.28-.34.52-.52.7-.52ZM54.77 18.46c0-.14.12-.21.37-.22q.87-.015 1.5.6c.34.3.51.64.52 1 0 .23 0 .42-.02.59 0 .03 0 .09-.01.19 0 .1-.01.18-.01.23.01.59.11 1.62.31 3.08q.33 2.445.36 4.17c.02 1.04.09 1.7.2 1.98.06.11.19.17.38.16.17 0 .42-.05.77-.14.21-.06.52-.09.93-.1.37 0 .62.02.75.07.38.13.97.48 1.79 1.04q1.23.84 1.23 1.05c0 .08.12.18.35.29.15.05.26.15.33.29.08.14.15.33.23.59.08.25.14.42.18.5.82 1.73 1.3 3.91 1.44 6.56.06 1.15.13 1.8.19 1.94.02.03.03.08.04.17 0 .31-.12.76-.39 1.34s-.54.98-.8 1.18c-.35.32-.62.48-.83.48s-.47-.2-.79-.62c-.21-.3-.37-.65-.46-1.05q-.135-.585-.42-2.61c-.27-2.02-.48-3.31-.64-3.87-.18-.53-.27-1.02-.28-1.47-.01-.62-.54-1.07-1.58-1.36a.6.6 0 0 0-.25-.04c-.64.01-1.08.71-1.33 2.09-.15.76-.27 1.2-.35 1.32-.1.2-.14.61-.13 1.23l.03 1.6c.04 2.14.03 3.35-.05 3.63-.14.2-.38.42-.7.65-.25.15-.46.22-.65.22-.52.01-.96-.37-1.33-1.13-.37-.77-.56-1.77-.59-3.01v-.25l-.03-1.1c-.04-2.19-.15-5.5-.31-9.93s-.26-6.69-.31-6.77c-.06-.14-.13-.63-.18-1.47-.06-.76-.13-1.35-.22-1.77q-.105-.465.33-.81c.29-.15.43-.32.42-.52ZM74.05 26.85c.43-.18.91-.27 1.42-.28.83-.02 1.48.17 1.97.55.32.25.81.81 1.49 1.7.6.8 1.01 1.72 1.24 2.76.19 1.01.28 1.64.29 1.89 0 .39.05.8.12 1.22.16.7.32 2.88.47 6.53.02.87.08 1.45.19 1.73.04.11.07.24.07.38 0 .08 0 .23-.02.44s-.02.37-.02.49c0 .17.04.32.1.46.09.22.16.67.23 1.33s.11 1.06.13 1.2c.09.53.1.93.02 1.18-.1.28-.16.79-.19 1.52-.03.68-.18 1.33-.46 1.95-.28.6-.41 1.04-.41 1.32-.03.7-.28 1.16-.75 1.36-.14.06-.32.29-.51.69-.2.4-.4.61-.61.65-.33.06-.52.21-.58.43-.06.23-.21.34-.46.35-.23 0-.37.08-.43.22-.1.17-.77.27-2.01.29-1.04.02-1.58-.04-1.65-.18q-.165-.21-.6-.33c-.48-.1-1.09-.73-1.82-1.88-.74-1.15-1.11-2.05-1.13-2.7 0-.28.22-.69.69-1.24l.7-.77.82.62c.52.35 1.03.91 1.52 1.66.45.69.78 1.04.98 1.04.46 0 1.15-.38 2.09-1.1.37-.26.62-.39.77-.4.21 0 .43-.31.67-.92s.37-1.22.4-1.84c0-.17 0-.43.03-.78q.03-.525.03-.78c0-.48-.08-1.05-.22-1.73-.11-.5-.17-.84-.18-1.01 0-.14.04-.3.12-.47.14-.23.15-.4.02-.51-.17-.11-.21-.35-.14-.71.02-.09.03-.2.02-.34 0-.22-.06-.34-.16-.33-.15 0-.37.23-.67.69-.46.66-.89 1.1-1.29 1.33s-.93.37-1.59.41c-2.13.04-3.58-1.49-4.35-4.6-.21-.92-.32-1.99-.34-3.2-.06-2.87.3-5.3 1.07-7.28.35-.88.72-1.52 1.09-1.92.38-.4.98-.77 1.83-1.09m2.41 4.21c-.11-.28-.46-.43-1.07-.44h-.44c-.68.02-1.02.2-1.01.54q0 .21-.3.45c-.2.16-.3.29-.3.41v.04s.03.06.03.08c.07.2 0 .35-.18.47-.18.09-.24.33-.17.72.07.37.04.55-.08.55-.15 0-.18.23-.11.68 0 .03 0 .06.02.11.01.04.02.08.02.1 0 .34-.09.75-.29 1.23-.16.34-.24.62-.23.85 0 .17.05.35.13.55.11.17.16.33.17.5 0 .06 0 .13-.03.21s-.03.16-.03.21c0 .17.06.34.17.5.21.39.28.66.2.8-.06.14.03.29.26.46.25.16.38.34.38.54.03.53.25.8.67.79.19 0 .34-.02.46-.05.54-.09.8-.25.8-.48 0-.22.25-.57.76-1.03.47-.4.7-.72.7-.94s.1-.69.31-1.4c.21-.65.32-1.32.3-1.99 0-.42-.03-.77-.05-1.05-.07-1.29-.23-2.11-.48-2.44-.32-.42-.52-.73-.61-.96Z" class="cls-1"/></g></svg>