<?xml version="1.0" encoding="UTF-8"?>
<svg id="Layer_2" data-name="Layer 2" xmlns="http://www.w3.org/2000/svg" viewBox="0 0 106.37 69.93">
  <defs>
    <style>
@font-face {
    font-family: 'Monotony';
    src: url('Monotony-Regular.woff2') format('woff2'),
        url('Monotony-Regular.woff') format('woff'),
        url('Monotony-Regular.ttf') format('truetype');
    font-weight: normal;
    font-style: normal;
    font-display: swap;
}
      .cls-1, .cls-2 {
        fill: #231f20;
      }

      .cls-3 {
        fill: #fff;
      }

      .cls-4 {
        stroke-miterlimit: 10;
        stroke-width: 2px;
      }

      .cls-4, .cls-5 {
        fill: none;
        stroke: #fff;
      }

      .cls-2 {
        font-family: Monotony-Regular, Monotony;
        font-size: 36px;
      }

      .cls-5, .cls-6 {
        stroke-linecap: round;
        stroke-linejoin: round;
        stroke-width: 11px;
      }

      .cls-6 {
        fill: #e44699;
        stroke: #f6aacb;
      }
    </style>
  </defs>
  <g id="art">
    <g id="art_copy" data-name="art copy">
      <g>
        <polygon class="cls-3" points="45.4 64.37 43.25 61.04 80.26 30.46 28.75 56.24 26.62 52.89 70.16 18.29 7.3 46.04 5.5 42.47 48.53 17.99 18.81 28.64 17.46 24.87 68.88 6.45 70.54 10.07 41.67 26.5 82.78 8.35 84.83 11.74 44.16 44.06 94.21 19.01 96.38 22.34 58.98 53.23 95.89 35.06 97.65 38.64 45.4 64.37"/>
        <polygon class="cls-5" points="45.4 64.37 43.25 61.04 80.26 30.46 28.75 56.24 26.62 52.89 70.16 18.29 7.3 46.04 5.5 42.47 48.53 17.99 18.81 28.64 17.46 24.87 68.88 6.45 70.54 10.07 41.67 26.5 82.78 8.35 84.83 11.74 44.16 44.06 94.21 19.01 96.38 22.34 58.98 53.23 95.89 35.06 97.65 38.64 45.4 64.37"/>
      </g>
      <path class="cls-3" d="M57.69,7c1.26,0,2.52.03,3.73.1,15.17.79,26.44,4.87,32.58,11.81,4.07,4.6,5.8,10.33,5.29,17.52-.75,10.54-5.75,17.42-15.74,21.64-10.3,4.35-23.67,4.86-32.84,4.86-4.34,0-8.54-.12-12.24-.23-8.63-.26-15.14-2.69-19.34-7.24-4.91-5.32-7.12-13.85-6.55-25.36.39-7.96,7.5-13.22,13.4-16.23,8.54-4.36,20.1-6.86,31.71-6.86M57.69,0C33.15,0,6.55,10.42,5.59,29.74c-.67,13.46,2.16,23.71,8.4,30.46,5.52,5.98,13.69,9.17,24.28,9.49,3.75.11,8,.24,12.44.24h0c22.85,0,53.47-3.42,55.56-33.01.64-9.03-1.73-16.65-7.03-22.65C91.83,5.89,78.88.99,61.78.1c-1.34-.07-2.72-.1-4.09-.1h0Z"/>
      <g>
        <path class="cls-4" d="M31.61,47.4c-.91,0-1.71-.1-2.38-.29-2.42-.73-5.29-2.74-5.29-8.23,0-.56.01-1,.04-1.31.12-1.56.4-2.87.8-3.9.42-1.07,1.08-2.05,1.95-2.92,1.27-1.28,2.3-2.08,3.16-2.44.74-.34,1.54-.51,2.36-.51,1.14,0,2.49.37,4.12,1.14,1.07.52,1.85,1.06,2.4,1.65.53.57,1.1,1.49,1.73,2.82.77,1.53,1.34,2.6,1.67,3.15.49.79.82,1.44,1.01,2,.07.18.12.26.13.27h0s.14.09.52.24c.73.28,1.09.33,1.25.33.53,0,1.02.18,1.46.52.63.5.77,1.07.77,1.45,0,.12-.01.25-.04.36.14.23.22.5.22.79,0,.6-.26,1.45-1.5,2.14-.54.28-1.15.41-1.85.41-.88,0-1.79-.2-2.72-.58-.8-.33-1.47-.76-2-1.26-.42.63-1,1.27-1.73,1.92-.84.74-1.67,1.29-2.48,1.62-1.02.43-2.23.65-3.58.65ZM31.27,41.67c.19,0,.39.03.62.09-.02,0,.03-.02.12-.1.46-.41.9-.62,1.33-.65.06-.02.19-.09.45-.25.36-.23.65-.37.9-.46.1-.35.3-.63.58-.82.06-.23.17-.44.32-.64.03-.13.08-.48.08-1.31,0-.45-.02-.69-.04-.8-.19-.25-.4-.69-.69-1.64-.25-.75-.41-1.07-.48-1.19h-.05c-.16.02-.27.03-.3.03-.62,0-1.02-.18-1.26-.41-.23.21-.54.34-.95.34-.19,0-.38-.03-.56-.08-.07.06-.15.1-.23.15-.01.28-.08.57-.28.82-.26.32-.62.43-.92.49-.05.11-.12.22-.19.31.08.26.06.49.01.66-.07.24-.2.45-.43.69.11.33.15.76.15,1.33,0,.38-.01.69-.04.94-.02.22-.03.52-.03.86,0,.19,0,.32.02.39.2.23.36.52.47.88,0,0,.02,0,.03,0,.48.07.81.22,1.04.39.1-.02.21-.03.33-.03Z"/>
        <path class="cls-4" d="M51.57,45.96c-.56,0-.97-.39-1.28-.73-.35-.39-.58-.83-.68-1.31-.05-.23-.13-.72-.23-2.21-.07-1.02-.11-1.93-.11-2.69v-.47c.02-.45.04-1.08.04-1.94,0-1.32-.02-2.49-.07-3.48-.02-.41-.04-.95-.04-1.59,0-.85,0-2.84,1.49-2.84.02,0,.04,0,.07,0,.28-.33.68-.5,1.13-.5.69,0,1.34.4,1.92,1.17.42-.35.76-.52,1.1-.56.03-.02.07-.05.13-.1.16-.15.54-.43,1.79-1.09.66-.34,1.18-.54,1.6-.62.39-.07,1.01-.11,1.96-.11,1.45,0,2.51.19,3.23.59.5.28.69.31.7.31h0c.6,0,1.24.45,1.26,1.31h0s.04.04.1.1c.52.58.78,1.14.78,1.71,0,.53-.21,1-.62,1.36-.27.29-.74.49-1.35.57-.42.05-1.28.09-2.64.12-1.98.03-2.7.14-2.96.2-.24.06-.84.28-2.13,1.06-.55.32-.74.51-.8.57-.06.07-.22.28-.45.83-.49,1.11-.73,2.27-.73,3.47v1.19c0,.85-.06,1.76-.18,2.69-.18,1.35-.37,1.8-.61,2.1-.26.38-.79.61-1.5.61-.05,0-.08.01-.1.02-.31.17-.54.27-.81.27Z"/>
        <path class="cls-4" d="M77.93,45.39c-.08,0-.25,0-.51-.02-.21-.01-.39-.02-.54-.02-1.29-.03-1.67-.09-1.88-.13-.5-.11-.89-.43-1.09-.88-.05-.06-.18-.21-.51-.52-.44-.42-.95-.98-.96-1.64,0,0,0,0,0,0-.01,0-.06-.07-.17-.19-.49-.58-.71-1.19-.71-1.89,0-.09-.02-.16-.03-.21-.2-.16-.35-.39-.41-.66-.06-.26-.07-.65.25-1.09.01-.02.12-.18.12-.71,0-.05,0-.09,0-.13-.24-.27-.32-.56-.34-.77,0,0,0,0,0-.01-.04,0-.08,0-.12,0-.59-.03-1.41-.25-2.08-1.17-.41-.52-.61-1.04-.61-1.56,0-.74.44-1.4,1.33-2.04.65-.46,1.11-.65,1.53-.65.22,0,.44.04.69.14.03-.05.06-.11.08-.18.06-.16.07-.25.08-.29.01-.16.02-.41.03-.75.01-.38.03-.71.06-.99.17-2.27.33-3.71.5-4.38.3-1.22,1.02-1.66,1.56-1.82.26-.09.57-.15.87-.15.6,0,1.18.31,1.75.94.44.45.62,1.28.62,2.94,0,.88-.03,2.27-.1,4.24h.25c.93.08,1.56.28,1.99.64.45.38.74.99.9,1.89.03.16.05.37.05.61,0,.9-.78,1.48-1.04,1.67-.56.45-1.28.74-2.1.84-.21.02-.37.04-.48.06,0,.08,0,.17,0,.28,0,.54.05.76.07.83.24.34.35.78.35,1.33,0,.15-.01.34-.04.56.08.06.16.13.23.21.03.04.06.08.09.13l.07-.03s.41-.3.5-1.94c0-.77.74-1.3,1.38-1.67.6-.38.98-.53,1.34-.53.32,0,.64.11,1.05.36,1.02.61,1.57,1.61,1.57,2.9,0,.33-.02.59-.05.77-.29,2.28-1.38,3.99-3.23,5.06-.66.4-1.43.6-2.29.6ZM71.47,35.54s0,0,0,0c0,0,0,0,0,0h0Z"/>
      </g>
    </g>
    <g id="Layer_2-2" data-name="Layer 2">
      <polyline class="cls-6" points="17.6 26.76 69.02 8.33 8.05 43.02 81.29 11.58 28.75 53.74 94.57 20.8 45.82 61.06 93.79 38.02"/>
      <line class="cls-6" x1="71.33" y1="15.86" x2="31.93" y2="41.82"/>
    </g>
    <path class="cls-1" d="M59.41,3.7c.99,0,1.98.02,2.95.05,15.19.57,26.57,4.6,32.91,11.67,4.74,5.28,6.83,12.36,6.22,21.05-.86,12.12-6.78,20.18-18.11,24.66-10.17,4.02-23.3,4.56-34.81,4.56-2.15,0-4.26-.02-6.29-.04-.93,0-1.84-.02-2.74-.02-9.81-.07-17.34-2.94-22.38-8.53-5.62-6.24-7.99-15.72-6.84-27.41C11.99,12.81,36.85,3.7,59.41,3.7M59.41,1.7C36.83,1.7,10.17,10.87,8.34,29.5c-2.06,21.01,6.81,37.97,31.19,38.13,2.86.02,5.9.06,9.04.06,23.61,0,52.87-2.17,54.92-31.07C105.14,13.24,88.09,2.71,62.43,1.76c-1-.04-2.01-.06-3.02-.06h0Z"/>
    <text class="cls-2" transform="translate(23.08 47.84) scale(.98 1)"><tspan x="0" y="0">art</tspan></text>
  </g>
</svg>