<?xml version="1.0" encoding="UTF-8"?>
<svg id="Layer_2" data-name="Layer 2" xmlns="http://www.w3.org/2000/svg" viewBox="0 0 92.88 76.11">
  <defs>
    <style>
	@font-face {
    font-family: 'Monotony';
    src: url('Monotony-Regular.woff2') format('woff2'),
        url('Monotony-Regular.woff') format('woff'),
        url('Monotony-Regular.ttf') format('truetype');
    font-weight: normal;
    font-style: normal;
    font-display: swap;
}

      .cls-1, .cls-2 {
        fill: #fff;
      }

      .cls-1, .cls-3 {
        stroke-miterlimit: 10;
      }

      .cls-1, .cls-3, .cls-4 {
        stroke: #fff;
      }

      .cls-3, .cls-5, .cls-4 {
        fill: none;
      }

      .cls-5 {
        stroke: #231f20;
      }

      .cls-5, .cls-4 {
        stroke-linecap: round;
        stroke-linejoin: round;
        stroke-width: 2px;
      }

      .cls-6 {
        fill: #231f20;
        font-family: Monotony-Regular, Monotony;
        font-size: 42.2px;
      }

      .cls-7 {
        fill: #ffdeb4;
      }
    </style>
  </defs>
  <g id="blahg">
    <g id="blahg_copy" data-name="blahg copy">
      <g>
        <path class="cls-2" d="M51.4,61.73c-3.81,0-7.6-.44-11.27-1.3-11.21-2.63-17.17-7.34-17.72-13.99-1.05-12.6,18.28-26.48,25.81-29.64,4.01-1.68,7.86-2.53,11.44-2.53,6.07,0,11.32,2.37,15.62,7.04,6.66,7.25,9.12,18.2,8.68,23.33-.67,7.9-15.04,17.09-32.55,17.09h0Z"/>
        <path class="cls-3" d="M51.4,61.73c-3.81,0-7.6-.44-11.27-1.3-11.21-2.63-17.17-7.34-17.72-13.99-1.05-12.6,18.28-26.48,25.81-29.64,4.01-1.68,7.86-2.53,11.44-2.53,6.07,0,11.32,2.37,15.62,7.04,6.66,7.25,9.12,18.2,8.68,23.33-.67,7.9-15.04,17.09-32.55,17.09h0Z"/>
      </g>
      <g>
        <polygon class="cls-2" points="82.08 75.11 1 62.59 6.2 1 10.19 1.34 5.3 59.2 78.69 70.54 87.32 9.89 17.86 5.01 18.14 1.02 91.88 6.21 82.08 75.11"/>
        <polygon class="cls-4" points="82.08 75.11 1 62.59 6.2 1 10.19 1.34 5.3 59.2 78.69 70.54 87.32 9.89 17.86 5.01 18.14 1.02 91.88 6.21 82.08 75.11"/>
      </g>
      <g>
        <path class="cls-1" d="M14.03,48.71c-.95,0-2.12-.09-2.95-.73-.07-.02-.15-.04-.25-.05-.95-.18-1.73-.57-2.28-1.18-.71-.77-1.12-1.83-1.29-3.24-.12-1.04-.25-3.62-.4-7.9-.06-1.82-.16-3.62-.29-5.35-.14-1.82-.24-3.65-.3-5.45-.03-.62-.06-1.39-.08-2.26-.03-1.49.11-2.64.87-3.42l.1-.1c.58-.52,1.32-.81,2.13-.82h.27s.15.01.15.01c.96.12,1.8.69,2.37,1.58.44.69.69,1.53.78,2.58v.14c.01.09.06.63.16,1.56.02.18.03.32.05.43.18.45.23,1.1.28,3.35.02.78.04,1.47.08,2.06.71-.14,1.44-.21,2.19-.23h.24c1.98,0,2.88.68,3.27,1.39.63.4,1.1,1.08,1.42,2.02.07.22.11.3.12.31.2.33.34.62.45.93.12.33.21.74.28,1.29.03.21.06.35.08.43.35.51.53,1.17.54,2.01.02.9-.16,1.67-.52,2.3l-.05.1c-.08,1.04-.31,2.05-.71,3.07-.37,1-.99,1.99-1.82,2.92-.91,1.02-1.8,1.66-2.71,1.95l-.1.03c-.61.16-1.21.25-1.78.26h-.29ZM13.83,38.9c-.02.29-.03.52-.03.72,0,.34.02.61.04.82.05,0,.1,0,.14,0,.07-.08.15-.18.26-.32.39-.49.51-.71.54-.77h0s.07-.17.12-.64c.03-.2.06-.37.08-.5-.07.02-.14.03-.21.04-.09.05-.26.16-.54.36l-.08.06c-.14.09-.24.17-.32.23Z"/>
        <path class="cls-1" d="M26.48,48.04c-.95,0-1.75-.23-2.39-.69-.59-.42-1.08-1.05-1.47-1.92-.29-.68-.58-1.92-.85-6.6-.06-1.13-.13-1.96-.19-2.47v-.1c-.29-3.62-.44-5.81-.46-6.69l-.02-.91c-.01-.55-.02-1.29-.03-2.19,0-.89-.02-1.78-.04-2.68-.11-5.5,0-6.07.1-6.46.26-1.06,1.09-1.84,2.23-2.09l.19-.04h.09c.13-.04.25-.06.35-.08.25-.05.42-.06.53-.06h0c2.55,0,2.96,3.21,3.18,4.93.18,1.4.28,2.39.29,3.03l.03,1.27c.06,3.23.13,5.98.2,8.25.16,5.24.24,6.98.29,7.52.01.13.02.24.04.34.87.4,1.32,1.28,1.5,1.62.41.79.61,1.51.62,2.22.02,1.06-.48,2.06-1.4,2.81-.81.65-1.7.98-2.67,1h-.12Z"/>
        <path class="cls-1" d="M37.87,49.83c-.89,0-1.69-.13-2.39-.38-3.57-1.33-5.42-4.79-5.53-10.28-.01-.67-.01-1.19,0-1.56.08-1.89.29-3.43.64-4.71.37-1.35.97-2.59,1.77-3.69,1.19-1.65,2.16-2.67,3.05-3.21.82-.52,1.75-.8,2.71-.82h0c1.33,0,2.73.47,4.35,1.44,1.09.68,1.89,1.38,2.47,2.17.53.73,1.07,1.82,1.69,3.45.71,1.76,1.23,2.98,1.53,3.61.46.94.78,1.74.98,2.42.03.01.06.03.09.04.4.19.57.22.58.22h.02c.54,0,1.35.17,2.11.93.6.61.92,1.35.94,2.14,0,.12,0,.24-.02.36.12.3.19.64.2.98.02.86-.25,2.09-1.63,3.13-.71.5-1.49.75-2.37.77h-.11c-.97,0-1.96-.26-2.94-.78-.32-.17-.62-.35-.9-.56-.25.37-.52.74-.83,1.11-.82,1-1.63,1.72-2.46,2.2-1.07.63-2.34.97-3.76.99h-.2ZM37.32,41.28c.13.05.25.11.37.18.27-.26.68-.57,1.21-.72.03-.03.06-.05.1-.08.19-.16.38-.32.58-.46.11-.34.28-.61.45-.81.05-.22.13-.42.23-.62.02-.18.04-.58.02-1.36,0-.41-.02-.66-.04-.8-.22-.43-.42-1.02-.65-1.94-.08-.29-.14-.51-.2-.69-.21-.03-.41-.09-.59-.16-.16.06-.33.1-.5.13-.05.18-.12.36-.22.54-.16.27-.42.58-.83.82.03.23.02.47-.02.7-.06.29-.16.55-.32.83.09.42.12.9.13,1.45,0,.46,0,.84-.02,1.13-.01.25-.01.58,0,.98,0,.12,0,.22.01.29.11.18.21.38.29.6Z"/>
        <path class="cls-1" d="M64.57,47.48c-1.29,0-2.1-1.05-2.37-1.4-.41-.58-.67-1.17-.82-1.81-.07-.29-.19-.89-.46-2.78-.23-1.69-.38-2.61-.48-3.12-.03.08-.06.15-.08.22,0,.08-.01.23,0,.48l.03,1.6c.07,3.23-.01,3.8-.12,4.2l-.09.34-.2.29c-.27.39-.66.76-1.18,1.13l-.07.05-.07.04c-.54.32-1.09.49-1.63.5h0c-.82,0-2.23-.3-3.17-2.27-.5-1.03-.75-2.29-.78-3.83l-.03-1.35c-.04-2.16-.14-5.4-.31-9.9-.17-4.77-.25-6.09-.27-6.45-.09-.36-.15-.85-.21-1.73-.06-.82-.13-1.26-.18-1.48-.22-.99.12-1.99.92-2.7.1-.2.23-.39.39-.56.3-.31.84-.69,1.73-.71h0c1.17,0,2.15.41,2.94,1.17.89.8,1.11,1.75,1.12,2.4,0,.28,0,.54-.02.76,0,.06,0,.14-.02.23,0,.37.06,1.15.29,2.86.22,1.66.35,3.12.38,4.34.08,0,.41,0,.41,0,.56,0,.97.06,1.33.2.55.2,1.24.59,2.21,1.26.62.42,1.22.83,1.62,1.34.38.24.7.57.92.98.15.27.27.58.39.96.03.11.06.19.08.25.92,1.94,1.47,4.4,1.62,7.29.05.9.09,1.29.11,1.44.07.22.11.46.12.72.01.64-.17,1.34-.57,2.22-.39.86-.82,1.45-1.32,1.87-.46.42-1.16.94-2.08.96h-.05Z"/>
        <path class="cls-1" d="M74.96,59.21c-.76,0-1.81,0-2.53-.61-.93-.26-1.81-1.09-2.84-2.7-.96-1.5-1.42-2.69-1.44-3.74-.02-1.05.61-1.93,1.17-2.58l1.96-2.17,2.25,1.69c.66.46,1.27,1.08,1.84,1.91.11-.08.23-.17.37-.27.27-.19.53-.36.81-.5.14-.38.22-.74.24-1.11,0-.21.01-.5.04-.87.02-.28.03-.48.03-.61,0-.21-.03-.55-.13-1.08-.54.21-1.16.33-1.84.38h-.21c-2.14,0-4.96-1.06-6.2-6.11-.24-1.09-.38-2.3-.4-3.64-.06-3.12.34-5.82,1.2-8.04.46-1.14.95-1.97,1.5-2.56.59-.63,1.43-1.15,2.57-1.59.62-.26,1.34-.4,2.1-.42h.14c1.24,0,2.28.33,3.11.98.31.24.8.7,1.84,2.05.78,1.06,1.32,2.24,1.6,3.55.29,1.54.33,2,.33,2.28,0,.28.03.57.08.89.13.61.3,1.99.51,6.82.02.9.08,1.15.08,1.17.11.26.17.62.18,1,0,.1,0,.31-.03.62,0,.07,0,.13-.01.18.14.4.24.94.32,1.75.06.57.09.93.12,1.07.15.85.14,1.52-.04,2.09-.02.06-.08.28-.1,1.01-.04.94-.25,1.84-.63,2.69-.16.35-.22.52-.24.59-.05,1.25-.58,2.26-1.47,2.85,0,0,0,0,0,0-.38.75-.86,1.26-1.44,1.53-.32.45-.78.77-1.33.91-.72.51-1.77.58-3.08.6,0,0-.42,0-.42,0ZM74.65,38.1c.06.13.12.26.17.39.05-.05.21-.19.24-.21.05-.32.16-.75.34-1.35.16-.49.23-.92.22-1.37,0-.36-.02-.66-.04-.91-.05-.97-.14-1.4-.18-1.54-.03-.04-.06-.08-.09-.12-.06.18-.13.35-.23.51.02.32-.02.73-.2,1.13,0,.02,0,.05,0,.07.01.65-.13,1.31-.43,2.05,0,.01,0,.02-.01.03.14.34.22.7.23,1.06,0,.09,0,.17,0,.26Z"/>
      </g>
    </g>
    <path class="cls-7" d="M48.99,18.65c-11.25,4.71-44.17,31.44-8.4,39.84,20.92,4.91,40.67-5.75,41.37-14.02s-7.49-36.5-32.97-25.82Z"/>
    <polyline class="cls-5" points="8.03 3.17 3.15 60.9 80.39 72.82 89.6 8.05 20.29 3.17"/>
    <text class="cls-6" transform="translate(7.13 50.14) rotate(-1.15) scale(.74 1)"><tspan x="0" y="0">blahg</tspan></text>
  </g>
</svg>