<?xml version="1.0" encoding="UTF-8"?>
<svg id="Layer_2" data-name="Layer 2" xmlns="http://www.w3.org/2000/svg" viewBox="0 0 115.63 55.19">
    <defs>
        <style>
            .cls-1 {
            stroke: #adcb74;
            stroke-width: 9px;
            }

            .cls-1, .cls-2, .cls-3, .cls-4, .cls-5 {
            stroke-linecap: round;
            }

            .cls-1, .cls-3, .cls-4, .cls-5 {
            fill: none;
            stroke-miterlimit: 10;
            }

            .cls-6 {
            fill: #231f20;
            }

            .cls-7, .cls-2 {
            fill: #fff;
            }

            .cls-2 {
            stroke-linejoin: round;
            }

            .cls-2, .cls-3 {
            stroke-width: 2px;
            }

            .cls-2, .cls-4, .cls-5 {
            stroke: #fff;
            }

            .cls-3 {
            stroke: #231f20;
            }

            .cls-4 {
            stroke-width: 5px;
            }

            .cls-5 {
            stroke-width: 8px;
            }
        </style>
    </defs>
    <g id="contact">
        <g id="contact_copy" data-name="contact copy">
            <g>
                <g>
                    <path class="cls-7"
                          d="M64.4,51.19c-.83,0-1.62-.06-2.36-.19-3.25-.54-5.59-2.31-6.78-5.11-.05-.12-.09-.23-.14-.34l-.2-.57-.6-.08c-3.06-.43-5.82-1.34-8.19-2.71-1.39-.8-2.71-1.73-3.92-2.78l-.38-.33-.49.11c-2.92.68-5.42,1.02-7.45,1.02-2.41,0-4.1-.48-5.04-1.42-.69-.69-1.67-2.21-.53-4.75.83-1.83,1.53-3.3,2.21-4.63l.8-1.56-1.75.1c-.91.05-1.77.08-2.56.08-2.71,0-4.8-.3-6.41-.93-3.76-1.47-6.92-2.9-7.37-5.5-.46-2.66,1.75-4.69,6.78-9.04,1.77-1.53,3.8-2.28,6.21-2.28,2.58,0,5.52.85,8.96,2.6l.77.39.5-.7c2.51-3.51,7.69-7.7,18.1-7.7,5.99,0,13.04,1.41,20.95,4.2.5.18.91.54,1.14,1.02.23.48.26,1.02.08,1.53-.28.8-1.04,1.34-1.89,1.34-.23,0-.45-.04-.67-.11-7.54-2.66-14.23-4.01-19.87-4.01-6.63,0-11.58,1.93-14.31,5.59l-.63.85.88.58c.29.19,1.35.91,1.35.91l.52-.25c2.76-1.33,5.81-1.98,9.33-1.98.25,0,.5,0,.75,0,.14,0,15.17.68,28.62,3.42l.33.07.3-.15c4.33-2.09,10.53-4.57,15.46-4.57,3,0,5.05.9,6.27,2.75,1,1.52,2.02,4.85-2.34,10.06l-.38.45.22.55c.52,1.34.71,3.42-1.38,5.73-6.57,7.28-23.84,18.29-34.89,18.29ZM77.22,41.35c-5.18,1.98-10.16,3.21-14.79,3.66l-.12,1.97c.13.03.27.06.41.08.56.09,1.17.14,1.81.14,4.38,0,9.76-2.19,13.5-4.02l-.8-1.83ZM80.33,22.97c-10.59,5.66-17.88,12.45-20.4,16.67l-.98,1.63,1.9-.12c11.98-.77,25.37-7.56,32.74-13.55l1.22-.99-1.42-.68c-2.66-1.28-6.49-2.48-11.4-3.56l-.35-.08s-.98.51-1.31.69ZM56.58,34.13c-1.82.75-4.68,1.88-7.93,2.97l-2.18.73,2.02,1.1c1.66.9,3.56,1.54,5.64,1.91l.84.15.28-.81c.5-1.43,1.34-2.96,2.51-4.54l2.14-2.9-3.33,1.38ZM34.11,31.24c-.56,1.09-1.14,2.27-1.76,3.62l-.62,1.35,1.49.06c.13,0,.28,0,.43,0,.93,0,2.08-.11,3.41-.31l1.57-.24-.9-1.31c-.69-1.01-1.31-2.07-1.84-3.16l-.87-1.79-.92,1.77ZM46.53,25.71c-1.14.17-2.26.35-3.37.53-1.17.18-4.73.74-4.73.74l.46,1.17c.87,2.17,2.12,4.21,3.72,6.04l.42.48.61-.17c1.86-.53,3.84-1.16,5.88-1.89,5.46-1.94,10.61-4.29,13.77-6.3l2.45-1.55-2.88-.29c-.83-.08-1.75-.12-2.75-.12-2.04,0-4.46.17-7.42.52l-.72.08-.14.71c-.05.26-.15.5-.3.72-.37.56-1,.89-1.67.89-.39,0-.78-.12-1.1-.34-.47-.31-.97-.66-1.49-1.04l-.33-.24-.41.06ZM68.45,21.93c.54.39.92.88,1.13,1.46l.44,1.18,1.05-.7c.71-.47,1.42-.93,2.12-1.37l2.27-1.42-2.65-.41c-1.22-.19-2.44-.37-3.64-.53l-.73,1.8ZM26.37,14.33c-1.48,0-2.73.43-3.71,1.28-1.81,1.57-3.87,3.34-4.83,4.47l-.77.9,1.02.61c.82.49,2.17,1.1,4,1.82,1.15.45,2.73.67,4.85.67h0c1.61,0,3.52-.13,5.85-.38l.92-.1-.04-.93c-.07-1.7.1-3.36.49-4.92l.19-.76-.7-.36c-2.92-1.53-5.3-2.27-7.27-2.27ZM97,17.32c-1.2,0-3.31.22-6.58,1.26l-2.92.93,2.91.97c2.63.88,4.81,1.84,6.47,2.85l.76.46.55-.7c1.66-2.12,2.26-3.87,1.65-4.8-.43-.65-1.35-.97-2.83-.97ZM51.43,18.56c-1.44,0-2.76.13-4.01.39l-2.26.47,1.88,1.33.94.7.41-.06c2.29-.33,4.16-.56,5.89-.73l-.04-1.99c-.82-.04-1.54-.07-2.14-.09-.23,0-.45,0-.67,0Z"/>
                    <path class="cls-5"
                          d="M64.4,51.19c-.83,0-1.62-.06-2.36-.19-3.25-.54-5.59-2.31-6.78-5.11-.05-.12-.09-.23-.14-.34l-.2-.57-.6-.08c-3.06-.43-5.82-1.34-8.19-2.71-1.39-.8-2.71-1.73-3.92-2.78l-.38-.33-.49.11c-2.92.68-5.42,1.02-7.45,1.02-2.41,0-4.1-.48-5.04-1.42-.69-.69-1.67-2.21-.53-4.75.83-1.83,1.53-3.3,2.21-4.63l.8-1.56-1.75.1c-.91.05-1.77.08-2.56.08-2.71,0-4.8-.3-6.41-.93-3.76-1.47-6.92-2.9-7.37-5.5-.46-2.66,1.75-4.69,6.78-9.04,1.77-1.53,3.8-2.28,6.21-2.28,2.58,0,5.52.85,8.96,2.6l.77.39.5-.7c2.51-3.51,7.69-7.7,18.1-7.7,5.99,0,13.04,1.41,20.95,4.2.5.18.91.54,1.14,1.02.23.48.26,1.02.08,1.53-.28.8-1.04,1.34-1.89,1.34-.23,0-.45-.04-.67-.11-7.54-2.66-14.23-4.01-19.87-4.01-6.63,0-11.58,1.93-14.31,5.59l-.63.85.88.58c.29.19,1.35.91,1.35.91l.52-.25c2.76-1.33,5.81-1.98,9.33-1.98.25,0,.5,0,.75,0,.14,0,15.17.68,28.62,3.42l.33.07.3-.15c4.33-2.09,10.53-4.57,15.46-4.57,3,0,5.05.9,6.27,2.75,1,1.52,2.02,4.85-2.34,10.06l-.38.45.22.55c.52,1.34.71,3.42-1.38,5.73-6.57,7.28-23.84,18.29-34.89,18.29ZM77.22,41.35c-5.18,1.98-10.16,3.21-14.79,3.66l-.12,1.97c.13.03.27.06.41.08.56.09,1.17.14,1.81.14,4.38,0,9.76-2.19,13.5-4.02l-.8-1.83ZM80.33,22.97c-10.59,5.66-17.88,12.45-20.4,16.67l-.98,1.63,1.9-.12c11.98-.77,25.37-7.56,32.74-13.55l1.22-.99-1.42-.68c-2.66-1.28-6.49-2.48-11.4-3.56l-.35-.08s-.98.51-1.31.69ZM56.58,34.13c-1.82.75-4.68,1.88-7.93,2.97l-2.18.73,2.02,1.1c1.66.9,3.56,1.54,5.64,1.91l.84.15.28-.81c.5-1.43,1.34-2.96,2.51-4.54l2.14-2.9-3.33,1.38ZM34.11,31.24c-.56,1.09-1.14,2.27-1.76,3.62l-.62,1.35,1.49.06c.13,0,.28,0,.43,0,.93,0,2.08-.11,3.41-.31l1.57-.24-.9-1.31c-.69-1.01-1.31-2.07-1.84-3.16l-.87-1.79-.92,1.77ZM46.53,25.71c-1.14.17-2.26.35-3.37.53-1.17.18-4.73.74-4.73.74l.46,1.17c.87,2.17,2.12,4.21,3.72,6.04l.42.48.61-.17c1.86-.53,3.84-1.16,5.88-1.89,5.46-1.94,10.61-4.29,13.77-6.3l2.45-1.55-2.88-.29c-.83-.08-1.75-.12-2.75-.12-2.04,0-4.46.17-7.42.52l-.72.08-.14.71c-.05.26-.15.5-.3.72-.37.56-1,.89-1.67.89-.39,0-.78-.12-1.1-.34-.47-.31-.97-.66-1.49-1.04l-.33-.24-.41.06ZM68.45,21.93c.54.39.92.88,1.13,1.46l.44,1.18,1.05-.7c.71-.47,1.42-.93,2.12-1.37l2.27-1.42-2.65-.41c-1.22-.19-2.44-.37-3.64-.53l-.73,1.8ZM26.37,14.33c-1.48,0-2.73.43-3.71,1.28-1.81,1.57-3.87,3.34-4.83,4.47l-.77.9,1.02.61c.82.49,2.17,1.1,4,1.82,1.15.45,2.73.67,4.85.67h0c1.61,0,3.52-.13,5.85-.38l.92-.1-.04-.93c-.07-1.7.1-3.36.49-4.92l.19-.76-.7-.36c-2.92-1.53-5.3-2.27-7.27-2.27ZM97,17.32c-1.2,0-3.31.22-6.58,1.26l-2.92.93,2.91.97c2.63.88,4.81,1.84,6.47,2.85l.76.46.55-.7c1.66-2.12,2.26-3.87,1.65-4.8-.43-.65-1.35-.97-2.83-.97ZM51.43,18.56c-1.44,0-2.76.13-4.01.39l-2.26.47,1.88,1.33.94.7.41-.06c2.29-.33,4.16-.56,5.89-.73l-.04-1.99c-.82-.04-1.54-.07-2.14-.09-.23,0-.45,0-.67,0Z"/>
                </g>
                <path class="cls-4"
                      d="M66.27,49.66c-2.9,0-5.55-.41-8.63-.89-1.49-.23-3.15-.5-5.05-.73-13.38-1.69-41.08-8.8-47.57-18.32-.05-.08-.1-.17-.15-.26-3.24-6.69-3.18-13.32.18-18.67C8.26,5.67,14.23,2.5,20.63,2.5c2.42,0,4.82.44,7.15,1.3l.29.11c9.42,3.49,29.04,10.75,43.9,10.75,6.46,0,11.23-1.39,14.18-4.13,4.32-4.01,8.65-6.04,12.86-6.04,5.74,0,10.71,3.95,12.97,10.32,2.22,6.26,1.57,14.93-4.91,20.19-7.85,6.38-22.06,10.9-32.59,13.57-2.95.75-5.56,1.09-8.21,1.09Z"/>
            </g>
        </g>
        <g>
            <path class="cls-2"
                  d="M5.61,25c-.17-.1-.29-.25-.37-.44-.07-.19-.17-.33-.31-.41-.21-.13-.29-.31-.23-.55.07-.23.11-.67.11-1.32.04-.63.17-1.1.38-1.4.21-.3.31-.52.29-.64-.03-.1.12-.43.46-.98.68-.97,1.11-1.78,1.31-2.46.06-.23.15-.4.24-.5.14-.13.19-.26.14-.41-.04-.05.02-.18.16-.39.24-.34.61-.72,1.11-1.14.49-.42.84-.65,1.03-.69.26-.02.48-.18.68-.47.21-.3.44-.39.68-.26.51.25,1.17.27,1.97.06.83-.22,1.51-.17,2.06.16.39.23.8.63,1.25,1.2.49.65.77.98.82,1,.02,0-.04.13-.18.37-.16.28-.2.51-.1.69.05.11.03.24-.06.39-.14.24-.38.47-.72.7-.35.23-.59.34-.73.35-.17.01-.36-.04-.59-.17-.4-.22-.64-.49-.74-.81-.09-.26-.23-.45-.41-.56-.27-.16-.61-.17-1.02-.04-.44.11-.7.22-.78.34-.04.06-.21.15-.51.27-.31.12-.51.25-.59.39-.19.29-.33.43-.43.43-.21-.02-.29.09-.25.33.03.18-.05.41-.24.7-.18.27-.43.55-.76.83-.36.29-.53.58-.5.87.02.28-.08.65-.28,1.12-.2.42-.28.76-.25,1.01.03.26.16.56.39.91.16.23.31.38.44.45.17.1.55.21,1.16.33.89.18,1.38.26,1.46.25.16-.02.46-.18.89-.49.44-.31.78-.61,1.04-.89.26-.28.58-.57.97-.89.39-.31.65-.49.78-.52.11-.02.28.03.51.15.51.26.83.53.97.83.1.25.12.58.09.97-.04.4-.12.73-.26.99-.14.26-.72.8-1.78,1.61-1.53,1.15-3.11,1.73-4.72,1.71-.61-.01-1.4-.27-2.35-.8-1.11-.62-1.7-1.17-1.78-1.62,0-.21-.14-.4-.42-.57Z"/>
            <path class="cls-2"
                  d="M21.64,23.52c.27-.04.44-.13.49-.25.06-.12.29-.29.7-.51.4-.22.64-.41.7-.55.07-.16.25-.32.51-.46.27-.15.46-.19.59-.14.11.04.26-.05.44-.29.15-.21.46-.36.91-.47.45-.11.79-.12,1.02-.03.02,0,.04.02.06.04.02.02.04.03.06.04.18.14.3.15.35.03.05-.12.17-.18.37-.15.24.02.47.07.72.16.33.12.53.27.58.43.08.22.24.28.48.17.13-.03.23-.03.3,0,.05.02.11.08.18.19.07.11.17.19.32.23.23.08.41.28.53.6.11.32.25.44.42.35.1-.06.23-.07.39-.01.16.05.3.15.42.31.12.15.15.29.11.42-.06.19-.07.39,0,.6.06.21.17.33.34.38.02,0,.04,0,.06,0,.02,0,.04,0,.06,0,.15-.02.22.08.2.31,0,.28.09.6.24.94.14.39.15.68.03.88-.14.19-.17.44-.08.74.08.32.05.51-.11.56-.16.05-.16.15,0,.31.14.2.16.5.04.88-.12.4-.28.58-.48.53-.2-.03-.22.04-.07.22.1.15.12.32.06.54-.11.36-.34.62-.69.78-.23.12-.28.24-.15.37.04.08.04.17,0,.28-.08.26-.27.51-.57.78-.3.26-.55.38-.74.35-.3-.09-.5-.05-.6.1-.03.08-.01.17.05.26.24.28.13.42-.34.42-.06,0-.12.01-.17.02-.37-.04-.59.05-.66.26-.08.16-.27.36-.59.58-.31.22-.54.31-.66.27-.04-.01-.23,0-.56.03-.34.03-.58.03-.72-.02-.06-.02-.13-.06-.2-.13-.07-.07-.12-.11-.16-.12-.12-.04-.35-.05-.69-.03-.33.02-.55.01-.66-.03-.02,0-.04-.02-.06-.04-.02-.02-.04-.03-.06-.04-.23-.13-.49-.15-.79-.06-.26.07-.61.04-1.02-.11-.25-.09-.45-.18-.61-.26-.53-.27-.95-.54-1.26-.82-.31-.28-.62-.53-.93-.75-.62-.44-.9-.79-.86-1.04.08-.28.07-.49-.04-.61-.15-.19-.21-.54-.16-1.06.04-.52.16-.98.35-1.37.25-.53.34-.82.26-.85-.08-.03.06-.43.43-1.19.08-.16.16-.33.23-.49.21-.45.31-.7.3-.76-.06-.1-.04-.28.08-.52.15-.31.29-.47.43-.48.12-.02.25-.16.37-.43.07-.14.24-.23.51-.28ZM30.16,26.5c-.12-.32-.4-.68-.86-1.09-.45-.41-.88-.69-1.28-.84-.06-.02-.13-.05-.19-.07-.32-.09-.6-.16-.84-.2-.24-.04-.42-.07-.56-.1-.14-.03-.28-.01-.44.05-.15.06-.26.11-.33.14-.07.03-.2.12-.4.26-.2.14-.34.24-.43.3-1.26.72-2.19,1.71-2.75,2.99-.5,1.14-.45,2.01.17,2.61.14.15.45.32.93.5.64.24,1.33.41,2.06.51.73.1,1.15.08,1.27-.05.09-.13.27-.19.54-.18.29,0,.52-.08.69-.23.32-.32.69-.66,1.12-1.02.54-.48.93-1.09,1.18-1.81.17-.49.26-.83.28-1.04.02-.21-.03-.46-.16-.76ZM30.71,22.65c.05-.13.02-.21-.06-.24-.11-.04-.21.01-.32.14-.01.09.01.16.08.2.16.05.27.02.31-.11ZM32.3,29.42c.05.11.12.13.22.06.09-.07.07-.12-.06-.16-.15-.04-.21-.01-.16.09Z"/>
            <path class="cls-2"
                  d="M46.04,26.49c-.02.15,0,.31.08.46.08.16.11.31.09.46-.04.24.04.54.24.9.14.24.22.53.25.86.03.34.07.58.12.75.07.19.07.54,0,1.06-.05.33-.1.58-.14.78-.04.15-.08.36-.12.62-.07.48-.06.72.02.73.06,0,.07.14.04.4-.09.65-.25,1.19-.48,1.63-.03.06-.16.66-.4,1.79-.24,1.13-.39,1.73-.44,1.79-.13.14-.47.33-1.04.57-.31.14-.61.27-.92.41-.13-.16-.25-.32-.38-.49-.41-.55-.51-1.39-.31-2.51.07-.39.14-.69.2-.9.06-.21.13-.53.2-.94.11-.61.14-.97.1-1.09-.07-.19-.04-.34.08-.46.07-.05.13-.2.17-.44.02-.11.03-.3.04-.56.01-.53.08-1.1.19-1.71.02-.13.05-.26.07-.39.03-.17.06-.35.09-.52.09-.48.09-.72.01-.73-.15-.02-.3-.15-.43-.37-.14-.18-.4-.35-.76-.5-.37-.13-.63-.08-.8.16-.14.22-.33.31-.56.26-.29-.05-.69.22-1.22.82-.53.6-.88,1.19-1.03,1.77-.08.25-.16.46-.24.63-.08.17-.13.28-.14.34-.03.13-.04.34-.02.64-.03.49-.12.81-.26.96-.06.08-.11.19-.14.34-.07.28-.1.57-.1.86-.02.45-.04.7-.05.77-.03.13-.11.27-.23.43-.22.27-.36.56-.43.86-.09.37-.27.75-.57,1.14-.29.37-.61.52-.95.45-.34-.07-.61-.4-.79-.99-.12-.39-.16-.8-.11-1.22.04-.42.24-1.44.58-3.04.97-4.42,1.57-6.98,1.76-7.69.13-.49.24-.73.34-.71.02,0,.04,0,.06.01.18.04.36-.07.53-.35.15-.26.3-.37.46-.33.16.04.39.26.7.67.27.38.53.59.77.65.28.06.6-.04.96-.31.22-.14.45-.2.68-.18.24.01.46-.02.69-.09.45-.16.8-.22,1.05-.18.16.03.26.1.3.22.05.14.44.36,1.18.65.74.28,1.09.57,1.04.88Z"/>
            <path class="cls-2"
                  d="M54.97,20.93c.16-.06.31-.08.44-.08.22.01.46.21.73.59.16.22.23.91.18,2.06-.03.8-.11,2.12-.23,3.97-.02.24-.04.48-.06.71.33.03.66.06.99.09.55.05.92.17,1.13.37.21.2.35.59.45,1.17.02.11.03.24.03.39,0,.24-.18.5-.53.78-.37.32-.83.52-1.36.57-.51.04-.85.11-1.01.24-.1.08-.16.4-.19.94-.03.67.02,1.1.16,1.27.09.15.14.38.13.69,0,.2-.06.51-.16.94-.07.17.01.26.24.27.1-.02.18,0,.23.07.05.07.07.19.07.36,0,.17.01.28.05.33.04.04.12.05.25,0,.26-.1.52-.21.79-.32.59-.21.93-1.06,1.02-2.53,0-.22.26-.48.76-.78.36-.24.6-.36.72-.37.1,0,.25.06.45.19.62.37.95.98.97,1.82,0,.24,0,.42-.02.55-.19,1.8-.98,3.14-2.42,3.98-.47.29-1.02.43-1.64.43-.07,0-.2,0-.42-.02-.21-.01-.4-.02-.55-.02-.81-.03-1.32-.08-1.51-.13-.19-.05-.31-.16-.37-.34-.04-.11-.24-.36-.61-.74-.37-.38-.54-.68-.53-.87.02-.24-.1-.51-.35-.8-.23-.32-.32-.68-.29-1.09,0-.48-.08-.77-.21-.86-.16-.1-.17-.23-.03-.39.2-.25.32-.64.36-1.16.03-.35,0-.57-.1-.66-.17-.16-.17-.33-.02-.49.11-.15.17-.24.17-.28.01-.17-.36-.29-1.12-.37-.43-.05-.77-.31-1.02-.77-.2-.35-.28-.65-.26-.91.04-.35.33-.69.86-1.04.39-.25.65-.37.81-.36.09,0,.2.05.33.12.29.15.55.1.78-.15.12-.14.23-.31.31-.5.08-.19.13-.36.15-.51.02-.15.05-.39.08-.71.03-.33.07-.61.1-.84.27-1.99.47-3.26.62-3.81.15-.55.38-.86.7-.96Z"/>
            <path class="cls-2"
                  d="M68.1,25.44c.47-.31.96-.49,1.49-.56.76-.1,1.75.08,3.01.51.8.28,1.42.6,1.86.96.44.36,1,1.03,1.69,2,.93,1.25,1.61,2.07,2.01,2.51.51.54.89,1,1.12,1.38.16.25.32.41.46.5.15.09.42.16.82.22.64.09,1.13.08,1.47,0,.26-.07.52-.04.79.07.27.11.43.27.49.48.02.06.02.11.01.16-.02.18.05.35.2.5.1.06.17.15.21.27.11.41-.08.84-.58,1.3-.29.25-.67.44-1.16.56-.67.17-1.4.19-2.18.07-.78-.13-1.43-.38-1.94-.75-.23-.17-.46-.34-.68-.51-.1.29-.2.58-.31.87-.23.61-.63,1.27-1.21,1.98-.58.71-1.19,1.25-1.79,1.61-.79.47-1.75.79-2.88.95-.76.1-1.42.11-1.98.02-2.92-.49-4.42-2.59-4.61-6.11-.03-.47-.04-.84-.03-1.1.03-1.32.17-2.41.42-3.28.25-.87.67-1.67,1.23-2.4.85-1.13,1.52-1.86,2.06-2.2ZM72.15,36.4c.15-.02.39-.18.73-.47.34-.29.58-.45.72-.47.25-.04.35-.18.31-.41-.04-.25.01-.42.17-.51.17-.11.24-.24.22-.36-.03-.17,0-.33.11-.47.12-.17.09-.73-.07-1.67-.12-.69-.24-1.07-.35-1.14-.16-.12-.4-.5-.7-1.15-.3-.6-.54-1.01-.73-1.23-.19-.22-.39-.31-.6-.28-.02,0-.04,0-.06,0-.04,0-.1.02-.18.04-.08.02-.14.04-.15.04-.36.05-.56-.03-.59-.24-.02-.15-.15-.2-.4-.17-.4.05-.58.16-.56.33.02.15-.07.24-.26.26-.19.02-.36-.03-.51-.16-.15-.13-.25-.09-.3.13-.05.22-.16.34-.34.36-.21.02-.29.19-.23.51.04.23.04.38,0,.45-.04.07-.16.13-.35.17-.3.08-.45.19-.44.34.02.19-.05.35-.22.47-.18.15-.2.3-.05.46.11.12.16.22.15.29-.01.08-.09.2-.23.36-.24.24-.28.45-.12.63.13.12.22.47.28,1.07.03.3.04.55.04.74,0,.24.02.53.05.87.04.47.12.75.23.85.16.09.29.28.4.57.09.29.35.45.78.46.42.02.65.12.67.31.02.15.08.23.19.24.11,0,.2-.07.26-.23.07-.14.28-.18.62-.14.3.02.58-.1.85-.37.26-.3.48-.46.67-.48Z"/>
            <path class="cls-2"
                  d="M90.89,33.62c-.18.06-.37.07-.56.01-.19-.06-.36-.06-.5-.01-.22.08-.41.03-.56-.14-.13-.18-.45-.45-.95-.82-.46-.38-.74-.73-.85-1.05-.1-.32-.21-.51-.32-.56-.1-.03-.26-.33-.48-.88-.33-1.02-.7-1.79-1.09-2.31-.14-.18-.22-.33-.24-.45-.01-.17-.09-.28-.23-.33-.06,0-.13-.11-.2-.34-.11-.36-.18-.84-.21-1.42-.03-.59,0-.96.09-1.12.14-.2.16-.44.06-.74-.1-.32-.03-.53.21-.63.5-.22.92-.68,1.25-1.37.34-.71.8-1.17,1.39-1.38.42-.15.98-.22,1.7-.22.81,0,1.24,0,1.29-.03.02,0,.08.11.17.34.11.27.27.42.47.45.11.02.2.11.27.26.1.23.13.53.09.91-.04.38-.1.61-.18.72-.09.13-.26.24-.49.33-.42.16-.78.19-1.09.08-.26-.08-.49-.09-.69-.01-.29.11-.51.34-.66.71-.19.38-.26.63-.22.74.02.06-.01.23-.1.52-.09.29-.12.5-.07.64.11.3.13.48.07.54-.14.14-.11.26.1.37.15.08.29.27.39.56.1.28.16.61.17,1.01,0,.42.12.7.37.84.23.14.46.42.69.83.2.37.41.62.62.75.21.12.53.2.94.23.27.01.48-.01.62-.06.18-.07.5-.28.97-.64.69-.54,1.05-.84,1.09-.91.08-.12.14-.43.17-.92.03-.49.01-.9-.04-1.24-.06-.34-.08-.73-.08-1.19,0-.45.03-.74.09-.85.05-.09.19-.18.43-.29.52-.22.94-.3,1.25-.24.26.07.53.23.81.48.29.25.49.49.61.74.12.24.17.97.13,2.17-.07,1.74-.61,3.2-1.62,4.35-.39.43-1.08.85-2.08,1.23-1.16.45-1.95.56-2.34.37-.16-.12-.39-.13-.7-.02Z"/>
            <path class="cls-2"
                  d="M98.14,11.19c.11-.13.23-.23.35-.3.2-.11.52-.09.96.07.26.09.69.6,1.27,1.53.41.65,1.05,1.73,1.94,3.26.11.2.22.4.34.59.31-.15.61-.31.92-.46.51-.25.91-.36,1.2-.32.29.04.63.27,1.02.68.07.08.15.17.23.29.13.19.11.49-.05.9-.16.46-.46.86-.89,1.19-.43.3-.69.55-.76.73-.05.12.07.4.34.84.34.55.61.86.83.92.17.07.33.23.48.47.1.16.22.44.37.83.03.17.15.2.35.08.08-.07.16-.09.24-.07.08.03.16.11.25.25.09.14.16.22.22.23.06.01.13-.03.22-.13.18-.23.35-.45.52-.68.4-.49.25-1.34-.46-2.55-.11-.17-.03-.52.25-1.03.19-.39.33-.61.44-.68.09-.06.25-.09.5-.1.75-.04,1.37.25,1.84.9.13.19.23.33.28.45.8,1.52.82,3.02,0,4.47-.26.48-.67.9-1.22,1.23-.06.04-.18.11-.38.21-.2.11-.36.2-.49.28-.73.41-1.2.65-1.39.71-.19.06-.36.04-.5-.07-.09-.07-.41-.15-.94-.26-.53-.11-.84-.24-.94-.4-.12-.2-.36-.34-.74-.44-.37-.13-.65-.37-.85-.71-.26-.38-.48-.57-.65-.57-.19,0-.27-.09-.24-.3.04-.31-.06-.67-.31-1.11-.16-.29-.31-.44-.44-.47-.23-.04-.33-.17-.28-.38.02-.17.02-.28,0-.32-.08-.14-.48-.04-1.18.31-.4.19-.84.16-1.31-.07-.36-.17-.6-.36-.72-.58-.16-.29-.09-.72.19-1.28.2-.4.37-.64.51-.71.09-.04.21-.07.36-.08.34-.03.54-.21.61-.53.03-.18.03-.37,0-.56-.03-.19-.08-.36-.15-.49-.06-.13-.17-.33-.32-.61-.15-.27-.27-.51-.37-.72-.84-1.71-1.35-2.83-1.51-3.34-.16-.51-.13-.89.1-1.13Z"/>
        </g>
        <path class="cls-1"
              d="M49.87,25.26c-6.51-4.34-20.98-17.69-28.52-11.17-7.54,6.52-8.82,7.73,0,11.17,8.82,3.44,34.2-5.49,44.96-2.17,10.75,3.32-41.18,22.96-36.15,11.79s10.06-18.62,22.01-18.31c11.95.31,54.53,5.15,45.66,14.99-8.88,9.84-35.86,24.96-40.7,13.56-4.85-11.4,38.57-36.83,44.4-27.93,5.83,8.91-35.21,34.32-54.37,23.27C27.98,29.41,29.98-4.84,74.86,10.99"/>
        <path class="cls-3"
              d="M76.67,47.31c-8.33,2.11-16.78,1.66-25.43.57-15.92-2.01-42.14-9.97-46.6-19.29C-3.92,10.75,15.45-3.04,30.33,4.79c12.73,6.69,45.11,16.23,57.56,4.68,18.7-17.34,33.6,14.09,20.6,24.66-7.58,6.16-21.51,10.57-31.82,13.18Z"/>
        <g>
            <path class="cls-6"
                  d="M5.98,24.95c-.17-.1-.29-.25-.36-.45-.07-.19-.17-.33-.3-.41-.21-.13-.28-.31-.22-.55.08-.23.12-.67.13-1.32.05-.63.19-1.1.4-1.4.22-.3.32-.51.3-.63-.03-.1.13-.43.47-.98.69-.96,1.14-1.77,1.35-2.44.07-.23.15-.4.25-.5.14-.13.19-.26.15-.41-.04-.05.02-.18.17-.39.25-.34.62-.71,1.13-1.13.5-.42.85-.65,1.04-.68.26-.02.49-.18.69-.46.22-.3.44-.39.68-.26.5.25,1.16.28,1.96.08.83-.21,1.5-.16,2.04.17.38.23.78.63,1.22,1.21.47.65.75.98.79,1.01.02,0-.05.13-.19.37-.17.28-.2.5-.11.69.05.11.02.24-.07.39-.14.24-.38.47-.73.7-.35.23-.59.34-.73.34-.17.01-.36-.04-.58-.17-.39-.22-.63-.5-.73-.82-.09-.26-.22-.45-.4-.56-.27-.16-.6-.17-1.01-.05-.44.11-.71.22-.78.33-.04.06-.21.15-.52.27-.31.12-.51.25-.6.38-.19.29-.34.43-.43.42-.21-.02-.29.09-.26.33.03.18-.06.41-.25.7-.18.27-.44.54-.78.82-.37.29-.54.57-.51.86.01.28-.09.65-.3,1.12-.2.42-.29.75-.27,1.01.02.26.15.56.38.91.16.23.3.38.43.46.17.1.55.22,1.15.34.89.19,1.37.27,1.45.26.16-.02.46-.18.9-.49.44-.31.79-.6,1.05-.88.26-.28.59-.57.98-.88.39-.31.66-.48.79-.51.11-.02.27.03.51.15.5.26.82.54.95.84.09.25.11.58.07.98-.04.4-.13.73-.28.99-.14.26-.73.8-1.8,1.59-1.55,1.14-3.13,1.71-4.73,1.67-.61-.02-1.39-.29-2.33-.83-1.1-.63-1.68-1.19-1.75-1.63,0-.21-.13-.4-.41-.58Z"/>
            <path class="cls-6"
                  d="M22.01,23.62c.27-.04.44-.12.5-.25.06-.12.29-.29.7-.51.41-.22.64-.4.71-.55.08-.16.25-.32.52-.46.27-.14.46-.19.58-.14.11.04.25-.05.45-.29.16-.2.46-.36.91-.47.45-.11.78-.12,1.01-.03.02,0,.04.02.06.04.02.02.04.03.06.04.18.14.3.15.35.03.05-.12.17-.17.37-.15.23.02.47.07.71.17.33.12.52.27.57.43.07.22.23.28.47.17.13-.03.23-.03.3,0,.05.02.11.08.18.19.07.11.17.19.31.24.23.08.4.28.52.61.1.32.24.44.41.35.1-.06.23-.06.39-.01.16.05.3.16.41.31.11.15.15.3.1.42-.07.19-.07.39-.01.6.06.21.17.33.33.39.02,0,.04,0,.06,0,.02,0,.04,0,.06,0,.15-.02.21.08.2.31,0,.28.08.6.23.94.13.39.14.68.02.88-.14.19-.17.44-.09.74.08.33.04.51-.12.56-.16.05-.16.15,0,.31.14.2.15.5.03.88-.13.4-.29.58-.48.52-.2-.03-.22.04-.07.22.1.15.12.32.05.54-.11.36-.35.62-.7.78-.23.12-.28.24-.15.37.04.08.04.17,0,.28-.08.26-.27.51-.58.77-.3.26-.55.38-.74.34-.3-.09-.5-.06-.6.1-.03.08-.01.17.05.26.24.28.13.42-.34.42-.06,0-.12.01-.17.02-.37-.04-.59.04-.66.25-.08.16-.28.36-.59.57-.32.22-.54.31-.66.27-.04-.01-.23,0-.56.03-.34.03-.57.02-.72-.02-.06-.02-.13-.06-.19-.13-.07-.07-.12-.11-.16-.13-.12-.04-.35-.05-.68-.04-.33.02-.55,0-.65-.03-.02,0-.04-.02-.05-.04-.02-.02-.04-.03-.06-.04-.23-.13-.49-.15-.78-.06-.26.07-.6.03-1.02-.12-.25-.09-.45-.18-.6-.26-.53-.27-.94-.55-1.25-.83-.31-.28-.61-.53-.92-.75-.61-.45-.89-.8-.84-1.05.09-.28.07-.49-.03-.61-.15-.19-.2-.54-.15-1.07.05-.52.17-.98.36-1.36.26-.53.35-.81.27-.85-.08-.03.07-.43.44-1.18.08-.16.16-.33.24-.49.22-.45.32-.7.31-.76-.06-.1-.03-.28.09-.52.15-.31.3-.46.44-.48.12-.02.25-.16.38-.43.07-.14.24-.23.51-.27ZM30.44,26.64c-.11-.32-.39-.68-.84-1.1-.45-.41-.86-.7-1.26-.84-.06-.02-.13-.05-.19-.07-.32-.09-.59-.16-.83-.2-.23-.04-.42-.08-.55-.1-.14-.03-.28-.01-.43.05-.15.06-.26.11-.33.14-.07.03-.2.12-.4.26-.2.14-.34.24-.44.3-1.26.71-2.2,1.69-2.78,2.97-.52,1.13-.48,2.01.13,2.61.14.15.45.32.92.5.63.24,1.32.42,2.04.52.73.1,1.15.09,1.27-.04.1-.13.27-.19.53-.17.29,0,.52-.07.69-.23.32-.32.69-.66,1.13-1.01.54-.48.94-1.09,1.2-1.8.17-.49.27-.83.29-1.04.02-.21-.03-.46-.15-.76ZM31.03,22.79c.05-.13.03-.2-.06-.24-.11-.04-.21.01-.32.14-.01.09.01.16.07.2.16.06.26.02.31-.11ZM32.53,29.57c.05.11.12.13.22.06.09-.07.07-.12-.06-.16-.15-.04-.21-.01-.16.09Z"/>
            <path class="cls-6"
                  d="M46.21,26.69c-.03.15,0,.31.08.46.08.16.11.31.08.46-.04.24.04.54.23.9.13.24.22.53.24.86.03.34.07.59.12.75.07.19.07.54-.01,1.06-.05.33-.1.59-.15.78-.04.15-.08.36-.12.62-.07.48-.07.72.01.73.06,0,.07.14.03.4-.1.65-.26,1.2-.49,1.63-.03.06-.17.66-.41,1.79-.24,1.13-.39,1.73-.45,1.79-.13.14-.47.33-1.03.57-.31.14-.61.27-.92.41-.13-.16-.25-.32-.38-.49-.41-.55-.5-1.39-.29-2.52.07-.39.14-.69.2-.9.06-.21.13-.53.2-.94.11-.61.15-.97.11-1.09-.07-.19-.04-.34.08-.46.07-.06.13-.2.17-.44.02-.11.03-.3.04-.56.02-.53.08-1.1.2-1.71.02-.13.05-.26.07-.39.03-.17.06-.35.1-.52.09-.48.09-.72.02-.73-.15-.03-.29-.15-.43-.37-.14-.18-.39-.35-.75-.5-.36-.13-.62-.08-.79.16-.14.22-.33.31-.56.26-.28-.06-.68.22-1.21.82-.53.6-.88,1.19-1.04,1.77-.08.25-.16.46-.24.63-.08.17-.13.28-.15.34-.03.13-.04.34-.03.64-.03.49-.12.81-.26.96-.06.08-.11.19-.15.34-.07.28-.11.57-.11.86-.02.45-.04.7-.05.77-.03.13-.11.27-.23.43-.22.27-.36.56-.44.86-.09.37-.28.75-.58,1.14-.29.37-.61.52-.95.44-.34-.07-.6-.41-.78-.99-.12-.39-.15-.8-.11-1.22.05-.42.25-1.44.6-3.04,1-4.42,1.62-6.99,1.81-7.69.14-.49.25-.73.34-.7.02,0,.04,0,.05.01.18.05.36-.07.53-.35.15-.26.3-.37.46-.33.16.04.39.26.68.67.27.38.52.6.76.65.27.06.59-.04.96-.3.22-.13.45-.2.68-.18.23.01.46-.01.68-.08.45-.16.79-.22,1.04-.17.16.03.26.1.29.22.05.14.43.36,1.16.65.73.29,1.08.57,1.03.88Z"/>
            <path class="cls-6"
                  d="M55.09,21.13c.16-.06.3-.08.44-.08.22.01.46.21.72.59.16.22.22.91.18,2.06-.03.8-.11,2.13-.23,3.97-.02.24-.04.48-.06.72.33.03.65.06.98.09.54.05.91.17,1.12.37.2.2.35.59.44,1.17.02.11.03.24.03.39,0,.24-.18.5-.53.78-.37.32-.82.52-1.35.57-.51.04-.84.11-1,.24-.1.08-.16.4-.19.94-.03.67.02,1.1.16,1.28.09.15.14.38.12.69,0,.2-.06.51-.16.94-.07.17,0,.26.23.27.1-.02.18,0,.23.07.05.07.07.19.06.36,0,.17.01.28.05.33.04.04.12.05.25,0,.26-.1.52-.21.78-.32.58-.21.92-1.06,1.02-2.53,0-.22.26-.48.75-.79.36-.24.59-.36.71-.37.1,0,.25.06.45.19.62.37.94.98.96,1.82,0,.24,0,.42-.02.55-.18,1.8-.97,3.14-2.4,3.98-.47.29-1.02.43-1.64.43-.06,0-.2,0-.42-.02-.21-.01-.39-.02-.54-.02-.81-.03-1.31-.08-1.5-.13-.19-.05-.31-.16-.37-.34-.04-.11-.24-.36-.61-.74-.37-.39-.54-.68-.53-.87.02-.24-.1-.51-.35-.8-.23-.32-.32-.68-.29-1.1,0-.48-.07-.77-.21-.86-.16-.1-.16-.23-.03-.39.2-.25.32-.64.36-1.16.03-.35,0-.57-.1-.66-.17-.16-.17-.33-.02-.49.11-.15.17-.24.17-.28.01-.17-.36-.29-1.12-.37-.43-.05-.76-.31-1.01-.77-.2-.35-.28-.65-.25-.91.04-.35.33-.69.85-1.04.39-.25.65-.37.8-.36.09,0,.2.05.33.12.29.15.55.1.78-.14.12-.14.22-.31.3-.5.08-.19.13-.36.15-.51.02-.15.05-.39.08-.72.03-.33.07-.61.1-.85.27-1.99.47-3.26.62-3.81.15-.55.38-.86.69-.96Z"/>
            <path class="cls-6"
                  d="M68.09,25.64c.46-.31.95-.5,1.47-.56.75-.1,1.74.08,2.98.5.79.28,1.41.6,1.85.96.44.36,1,1.03,1.69,2,.93,1.24,1.61,2.07,2.02,2.5.51.54.89,1,1.12,1.38.16.25.32.41.46.5.15.08.42.16.81.21.63.08,1.12.08,1.46-.01.26-.07.52-.05.79.07.27.11.43.27.49.47.02.06.02.11.01.16-.01.18.05.35.21.5.1.06.17.15.21.27.12.41-.07.84-.56,1.31-.29.25-.67.44-1.14.56-.66.17-1.39.2-2.17.07-.78-.12-1.43-.37-1.93-.74-.23-.17-.46-.34-.68-.51-.1.29-.2.58-.3.88-.22.61-.62,1.27-1.19,1.99-.58.72-1.17,1.25-1.77,1.61-.78.48-1.74.8-2.86.95-.76.1-1.41.11-1.97.03-2.91-.48-4.41-2.59-4.6-6.1-.03-.47-.04-.84-.04-1.1.02-1.32.16-2.41.41-3.28.25-.87.66-1.67,1.21-2.41.84-1.13,1.5-1.87,2.03-2.2ZM72.16,36.59c.14-.02.39-.18.72-.47.33-.29.57-.45.71-.47.24-.04.35-.18.31-.41-.04-.25.01-.42.16-.51.17-.12.24-.24.22-.36-.03-.17,0-.33.1-.47.12-.17.09-.73-.08-1.67-.12-.69-.24-1.07-.35-1.14-.16-.12-.4-.5-.7-1.14-.3-.6-.54-1.01-.73-1.22-.19-.22-.39-.31-.59-.28-.02,0-.04,0-.06,0-.04,0-.1.02-.18.04-.08.02-.13.04-.15.04-.36.05-.55-.03-.58-.24-.02-.15-.15-.2-.4-.17-.39.05-.58.16-.55.33.02.15-.06.24-.25.26-.19.02-.36-.03-.51-.16-.15-.13-.25-.09-.3.13-.05.22-.16.34-.33.36-.21.02-.28.19-.23.51.04.23.05.38,0,.45-.04.07-.16.13-.34.17-.3.08-.45.19-.43.34.02.19-.05.35-.22.48-.18.15-.2.3-.04.46.11.12.16.22.15.29-.01.08-.09.2-.23.36-.24.24-.28.45-.12.63.13.12.22.47.28,1.07.03.3.04.55.04.74,0,.24.02.53.05.87.04.47.12.75.24.85.15.09.29.28.4.57.09.29.35.45.77.46.42.01.64.12.67.31.02.15.08.23.19.24.11,0,.19-.07.26-.23.07-.14.27-.19.62-.15.3.02.58-.1.84-.38.26-.3.47-.46.66-.49Z"/>
            <path class="cls-6"
                  d="M90.81,33.73c-.18.07-.37.07-.56.02-.19-.05-.36-.06-.5,0-.22.08-.41.03-.56-.14-.13-.18-.45-.45-.96-.81-.46-.38-.75-.73-.85-1.05-.11-.32-.21-.5-.32-.56-.1-.03-.26-.33-.49-.87-.34-1.02-.71-1.78-1.11-2.3-.14-.18-.22-.33-.24-.45-.01-.17-.09-.28-.23-.33-.06,0-.13-.11-.2-.33-.12-.36-.19-.84-.22-1.42-.03-.59,0-.96.08-1.12.13-.2.15-.44.05-.74-.11-.32-.04-.53.2-.63.49-.22.9-.68,1.22-1.37.33-.71.77-1.17,1.36-1.38.41-.15.97-.22,1.68-.23.8,0,1.23-.01,1.28-.03.02,0,.08.1.18.33.12.27.28.42.47.45.11.02.2.11.27.26.1.23.14.53.11.91-.03.38-.09.61-.17.72-.09.13-.25.24-.48.33-.41.16-.77.19-1.08.09-.26-.08-.49-.08-.68-.01-.29.11-.5.34-.64.71-.18.38-.25.63-.21.74.02.06,0,.23-.1.52-.09.29-.11.5-.06.64.11.3.14.48.08.54-.14.14-.1.26.1.37.15.08.29.27.4.56.1.28.16.61.18,1.01,0,.42.13.7.38.84.23.14.46.42.7.82.21.37.42.62.63.74.21.12.53.2.94.22.27,0,.48-.01.62-.07.18-.07.5-.28.96-.65.68-.54,1.04-.85,1.08-.91.08-.12.14-.43.16-.92.02-.49,0-.9-.06-1.24-.06-.34-.09-.73-.1-1.19,0-.45.02-.74.07-.85.05-.09.19-.19.43-.29.51-.22.93-.31,1.25-.25.26.07.53.22.82.47.29.25.5.49.62.73.12.24.18.96.16,2.17-.04,1.74-.56,3.21-1.55,4.35-.38.43-1.06.86-2.06,1.25-1.15.46-1.93.57-2.33.38-.16-.12-.39-.13-.7-.02Z"/>
            <path class="cls-6"
                  d="M97.71,11.29c.11-.13.22-.23.34-.3.2-.11.52-.09.95.06.26.09.7.59,1.3,1.51.42.64,1.08,1.72,1.99,3.23.12.2.23.39.35.59.3-.16.6-.31.91-.47.5-.26.9-.37,1.19-.33.29.04.63.26,1.03.67.08.08.16.17.24.29.13.19.12.49-.03.9-.15.46-.44.86-.87,1.2-.43.31-.68.55-.75.74-.04.12.08.4.36.84.35.54.63.85.84.91.17.07.33.23.49.47.1.16.23.43.38.82.04.17.15.2.35.08.08-.07.16-.1.24-.07.08.03.16.11.26.25.09.14.16.22.22.23.06.01.13-.03.22-.13.17-.23.34-.45.51-.68.39-.49.22-1.34-.51-2.54-.12-.17-.04-.51.23-1.03.18-.39.32-.62.42-.68.09-.06.25-.09.5-.1.75-.05,1.37.23,1.85.88.14.18.23.33.29.44.83,1.51.88,3,.09,4.45-.25.49-.65.9-1.19,1.24-.06.04-.18.11-.37.22-.19.11-.36.2-.49.28-.73.42-1.19.66-1.38.72-.19.07-.36.05-.51-.06-.09-.07-.41-.15-.94-.25-.53-.1-.85-.23-.94-.39-.12-.2-.37-.34-.75-.44-.37-.12-.66-.36-.86-.7-.27-.37-.49-.56-.66-.56-.19,0-.27-.09-.24-.29.04-.3-.07-.67-.33-1.1-.17-.29-.32-.44-.45-.46-.23-.04-.33-.16-.29-.37.02-.17.01-.28,0-.31-.08-.14-.47-.03-1.17.31-.4.19-.84.17-1.3-.06-.36-.16-.6-.36-.72-.58-.16-.29-.1-.72.16-1.28.2-.4.36-.64.49-.72.09-.05.2-.07.36-.08.33-.04.53-.22.59-.53.03-.18.02-.37-.01-.56-.04-.19-.09-.35-.15-.48-.07-.13-.18-.33-.33-.6-.15-.27-.28-.51-.38-.72-.87-1.7-1.39-2.81-1.57-3.31-.17-.51-.15-.88.07-1.12Z"/>
        </g>
    </g>
</svg>