<?xml version="1.0" encoding="UTF-8"?>
<svg id="Layer_2" data-name="Layer 2" xmlns="http://www.w3.org/2000/svg" viewBox="0 0 90.82 59.5">
  <defs>
    <style>
      .cls-1 {
        stroke: #231f20;
        stroke-width: 2px;
      }

      .cls-1, .cls-2 {
        stroke-miterlimit: 10;
      }

      .cls-1, .cls-2, .cls-3 {
        fill: none;
      }

      .cls-2 {
        stroke: #91cff1;
      }

      .cls-2, .cls-3 {
        stroke-linecap: round;
        stroke-width: 12px;
      }

      .cls-4 {
        fill: #231f20;
      }

      .cls-5 {
        fill: #fff;
      }

      .cls-3 {
        stroke: #fff;
        stroke-linejoin: round;
      }
    </style>
  </defs>
  <g id="music">
    <g id="music_copy" data-name="music copy">
      <g>
        <path class="cls-3" d="M12.98,53.5c-1.41,0-2.03-.95-2.2-1.26-.76-1.43-.3-2.99,3.54-7.81-1.05.66-2.01.98-2.91.92-1.02-.06-1.86-.6-2.32-1.49-.67-1.29-1.78-3.46,8.3-21.34,4.75-8.42,9.81-16.44,9.86-16.52l3.38,2.14c-7.82,12.38-16,27.01-17.63,32.41,2.52-2.11,6.96-7.81,10.09-11.83,7.55-9.7,12.42-15.6,16.35-15.78,1.15-.05,2.1.47,2.55,1.41.38.8.4,1.67-.23,3.04,3.91-4.01,6.45-5.66,8.5-5.29,1.13.2,2.02.99,2.44,2.16.65,1.83.19,3.91-1.15,6.31,2.23-1.45,4.64-1.84,7.29-.36,2,1.12,3.15,2.57,3.41,4.31.52,3.47-2.58,6.73-5.86,10.18-2.51,2.63-5.63,5.91-4.98,7.64.22.6,1.69.77,3.64.4,7.6-1.42,17.96-8.74,17.92-11.79l4-.04c.07,6.29-13.16,14.28-21.19,15.77-5.72,1.07-7.54-1.38-8.12-2.94-1.52-4.08,2.22-8,5.83-11.8,2.24-2.36,5.04-5.29,4.81-6.82-.09-.57-.81-1.09-1.41-1.42-3.07-1.72-6.31,2.76-10.89,9.78-4.06,6.22-8.25,12.64-13.82,12.94-2.4.13-3.36-.88-3.76-1.75-1.21-2.66,1.76-5.91,8.59-13,4.16-4.32,11.62-12.06,11.99-15.34-3.27,1.84-11.52,11.82-17.13,18.61-10.38,12.57-15.26,18.12-18.45,18.54-.16.02-.31.03-.45.03ZM42.11,32.13c-.71.75-1.45,1.52-2.21,2.31-2.47,2.56-5.65,5.87-7.04,7.83,3.09-.92,6.32-5.66,9.25-10.13Z"/>
        <path class="cls-5" d="M44.14,6.09c7.48,0,29.56,12.14,39.85,25.07,2.01,2.53,2.39,6.13,1,9.4-1.37,3.22-3.95,5.23-7.08,5.52-6.83.64-20.41,1.71-34.58,1.71-34.12,0-37.82-6.29-38.21-7.55-.35-1.13-.43-5.56,13.38-15.13,3.95-2.74,7.39-6.02,10.72-9.21,5.05-4.83,9.82-9.39,14.48-9.79.14-.01.29-.02.44-.02M44.14,1.09c-.29,0-.58.01-.85.03-6.43.55-11.82,5.7-17.53,11.16-3.19,3.05-6.49,6.2-10.11,8.72C3.6,29.35-1.41,36.13.34,41.73c2.33,7.44,16.39,11.06,42.98,11.06,14.38,0,28.13-1.08,35.05-1.73,4.94-.46,9.14-3.65,11.22-8.54,2.12-4.97,1.47-10.51-1.69-14.48C77.05,14.41,53.67,1.09,44.14,1.09h0Z"/>
        <g>
          <path class="cls-5" d="M17.17,48.9c-1.53,0-2.15-1.48-2.35-1.96-.35-.82-.53-1.98-.56-3.65l-.02-.8-.08-9.09c-.08-9.07-.04-9.18.17-9.68.38-.94,1.27-1.35,2-1.61.31-.11.66-.17,1.03-.17h0c.3,0,.79.05,1.27.36.38-.19.8-.29,1.24-.3h0c.54,0,1.03.17,1.48.51l.12.09.11.11s.06.06.24.18c.25-.26.55-.46.88-.59.43-.43,1.15-.77,2.38-.8h.17c.79.05,1.28.16,1.69.36.96.48,1.3,1.43,1.41,1.75.01.03.02.05.03.08.44.51.63,1.2.75,1.62,0,.01,0,.03.01.04,0,0,.01.01.02.02.62.68.64,1.54.58,2.22,0,.06,0,.14-.01.23,0,.16.03.53.17,1.29.11.48.28,1.56.34,4.57.04,1.93,0,3.38-.1,4.43-.06.72-.11,1.85-.14,3.35-.1,4.4-.6,6.13-1.98,6.85-.39.19-.76.28-1.17.29h0c-1.18,0-1.83-.73-2.2-1.5-.39.74-1.04,1.39-2.12,1.41h0c-1.02,0-1.79-.54-2.32-1.6l-.03.78-1.61.79c-.32.19-.79.41-1.35.42h-.04Z"/>
          <path class="cls-5" d="M39.82,48.44c-.89,0-1.54-.55-1.92-.96-.01,0-.02.02-.04.02-.82.55-1.7.83-2.61.85h-.19s-.07,0-.07,0c-1.27-.06-3.05-.63-4.27-2.97-.28-.57-.52-1.23-.76-2.05-.26-.9-.38-1.58-.39-2.14v-.36c-.13-.39-.2-.86-.21-1.48,0-.32-.05-.64-.12-.95-.07-.29-.15-.64-.36-5.95-.08-2.17-.12-3.34-.12-3.54-.02-1.22.04-2.22.21-3.06.18-.85.36-1.34.63-1.72.27-.39.79-.89,1.71-1.08.15-.05.32-.09.54-.1h.12c1.23,0,2.08.86,2.54,2.55.2.65.34,1.46.42,2.43.02-1.57.09-2.2.14-2.57.15-.95.51-1.74,1.07-2.35.51-.53,1.13-.81,1.78-.82h0c1.82,0,2.58,1.93,2.94,2.86l.61,1.48-.02,5.45c0,1.81.01,2.94.02,3.4.07,3.37.45,4.67.67,5.14.39.86.56,1.34.61,1.75.04.2.08.52.14,1.17.04.46.07.77.09.93.03.18.05.39.06.62.01.64-.2,1.59-1.26,2.48-.54.5-1.11.94-1.9.96h-.05Z"/>
          <path class="cls-5" d="M49.33,50.32c-.78,0-1.46-.16-2.04-.47,0,0,0,0-.01,0-.04,0-.12,0-.12,0-1.05,0-1.93-.63-2.94-1.57-.99-.92-1.57-1.65-1.86-2.37-.43-1.13-.65-2.34-.68-3.63,0-.36,0-.59.04-.8.21-1.51,1.32-2.21,2.34-2.23h.01c.38,0,.66.03.92.1,1.13.22,2.33.57,3.01,1.49.12.02.31.04.59.04.36-.28.79-.44,1.27-.44,0-.02,0-.05,0-.07-.25-.08-.81-.24-1.91-.38-.38-.04-1.52-.15-2.26-.95-.37-.19-.77-.53-1.06-1.11-.57-.48-.86-1.17-1.01-1.51-.27-.64-.49-1.34-.64-2.08-.26-1.17-.41-2.51-.43-3.98-.01-.69.02-1.21.18-1.67,0-.08,0-.18,0-.29-.01-.64.03-1.19.23-1.68.02-.11.04-.33.07-.74.07-1.06.41-2.14,1.02-3.21.85-1.52,1.46-2.5,1.94-3.08.86-1.04,1.83-1.38,2.53-1.48.36-.28.82-.44,1.31-.45h0c.54,0,1.7.15,2.54,1.43.69.34,1.22.95,1.63,1.51.69.94,1.05,1.75,1.1,2.52.03.08.07.17.12.28.23.45.44,1.14.63,2.12.18.91.27,1.67.29,2.32,0,.32,0,.56-.03.76-.08.77-.29,1.47-.61,2.07l-.06.1c-.52.85-1.19,1.29-2,1.31h0c-.11,0-.21,0-.3-.02.26.14.49.32.68.54.38.24.7.61.89,1.13.36.37.6.88.64,1.46.02.09.08.35.27.97.49,1.66.76,3.32.79,4.94.02,1.01-.06,1.81-.24,2.44h0s-.04.17-.04.64c-.01.97-.23,1.72-.68,2.31l-.06.07c-.03.06-.11.21-.23.52-.43,1.06-1.5,2.43-4.16,2.92-.46.11-.97.17-1.56.18h-.12ZM48.97,30.91c.15.03.39.07.79.07.4,0,1.12.02,1.83.25-.24-.3-.42-.62-.57-.87-.46-.78-.81-1.6-1.02-2.42-.08-.01-.16-.02-.23-.04-.16.13-.34.25-.54.36,0,.03-.02.06-.03.1-.18.65-.27,1.35-.25,2.06,0,.21.02.37.03.49Z"/>
          <path class="cls-5" d="M61.25,46.45c-1.09-.08-2-.72-2.49-1.75-.18-.39-.43-1.07-.72-2.89-.2-1.25-.39-3.11-.59-5.69-.19-2.52-.32-4.76-.37-6.66l-.03-1.57c-.03-1.27,0-1.72.03-2.01.09-.68.4-1.26.89-1.66.24-.55.57-.89.9-1.11-.05,0-.11-.01-.18-.02-.66-.04-1.5-.15-2.16-.7-.4-.33-.74-.82-1.09-1.59-.55-1.21-.83-2.64-.87-4.39-.01-.66.03-1.19.12-1.62.11-.61.31-1.36.62-2.22.22-.64.48-1.37.96-1.87,0,0,0,0,0,0,.37-.85,1.05-1.49,1.98-1.84.4-.18.87-.27,1.41-.28h0c1.15,0,3.07.52,3.9,3.96.16.68.25,1.46.27,2.32.03,1.32-.12,2.61-.42,3.83-.35,1.39-.85,2.43-1.52,3.19-.39.45-.81.75-1.22.94,1.37.35,1.96,1.85,2.17,2.38.4,1.02.6,2.09.6,3.18,0,.39.07,1.64.32,5.19.31,4.36.46,7.02.49,8.13.03,1.43-.05,2.29-.27,2.9-.4,1.12-1.38,1.83-2.54,1.85h-.1s-.1,0-.1,0Z"/>
          <path class="cls-5" d="M69.99,48.24c-1.84,0-2.78-.82-3.25-1.54-.29-.15-.55-.36-.77-.62-.58-.31-1.08-.91-1.28-1.92-.03-.18-.11-.58-.47-1.7-.34-1.16-.5-2.07-.51-2.87,0-.3-.02-.47-.03-.56-.15-.42-.21-1.02-.28-2.3-.04-1.9-.15-3.33-.33-4.33-.09-.49-.14-.9-.13-1.27-.18-.47-.19-.96-.2-1.34-.02-.77.04-1.7.16-2.83.17-1.58.32-2.15.51-2.55v-.03c.02-.05.03-.16.03-.34-.04-1.9.86-2.6,1.53-2.87.07-.1.2-.3.37-.68.81-1.8,1.93-2.72,3.32-2.75h0c.9,0,1.77.35,2.72,1.05.3.24.52.41.68.52.8.31,1.21,1.15,1.24,2.51,0,.07,0,.13,0,.19.31.56.36,1.12.37,1.52.01.64-.07,1.33-.25,2.11-.23.97-.42,1.47-.72,1.86-.48.63-1.22,1.01-2.04,1.02h0c-.25,0-.5-.03-.73-.08-.04.15-.1.32-.16.52-.1.3-.11.43-.11.43.01.49,0,.93-.09,1.35.11.4.16.88.17,1.49.01.63-.03,1.34-.13,2.12-.07.53-.03.72-.03.72.15.4.26.88.35,1.5.06-.41.11-.78.14-1.12.06-.66.16-1.42.3-2.23.21-1.22.34-1.63.51-1.95.45-.81,1.22-1.25,2.16-1.27h0c1.18,0,2.15.51,2.73,1.41l.07.11c.27.49.49,1.11.67,1.95.16.75.25,1.45.26,2.07,0,.47-.06,1.34-.6,4.16-.64,3.24-1.54,5.55-2.77,7.07-.54.66-1.54,1.43-3.3,1.47h-.13Z"/>
        </g>
      </g>
    </g>
    <path class="cls-2" d="M28.33,8.52S6.22,43.05,11.53,43.36s21.6-28.14,28.01-28.43S6.95,52.3,13.17,51.49,48.12,7.36,50.83,14.93s-28.55,30.01-18.75,29.49,16.58-27.62,25.79-22.47c9.21,5.15-10.8,14.49-8.34,21.09s25.21-4.54,25.14-11.04"/>
    <path class="cls-1" d="M16.78,22.64C26.81,15.32,34.49,4.32,43.56,3.55c8.5-.72,31.88,13.1,42.44,26.36,5.71,7.17,1.13,17.83-8,18.68-29.6,2.76-106.79,7.32-61.21-25.95Z"/>
    <g>
      <path class="cls-4" d="M26.88,25.01c.07,0,.17.27.32.83.15.55.27.83.37.82.16,0,.22.26.17.8,0,.04,0,.1,0,.17,0,.08,0,.15,0,.23,0,.38.08.92.21,1.6.16.72.26,2.14.31,4.24.04,1.84,0,3.23-.09,4.19-.07.8-.12,1.97-.15,3.5-.07,3.14-.37,4.85-.91,5.13-.08.04-.18.06-.29.06-.25,0-.47-.47-.67-1.42-.13-.57-.2-1.2-.21-1.89,0-.46,0-1.2.03-2.24.05-1.46.05-3.44,0-5.97l-.02-.92-.13-3.96-.41-.8c-.24-.49-.43-.74-.56-.74-.13,0-.28.29-.45.87-.55,1.89-.83,4.13-.82,6.73,0,1.57-.03,3.31-.09,5.22-.06,1.92-.13,3.06-.2,3.45-.23,1.04-.49,1.56-.78,1.56-.3,0-.56-.45-.79-1.36-.19-.65-.32-1.32-.37-2.03s-.12-2.44-.19-5.19c-.1-3.29-.2-5.51-.29-6.65-.1-1.15-.26-1.72-.49-1.71-.1,0-.32.24-.65.7-.38.58-.61,1.2-.68,1.85-.05.61-.14,1.04-.27,1.27-.24.46-.35.94-.34,1.44,0,.31.04.56.11.74.12.46.13.9.03,1.32-.11.46-.1,1,0,1.61.13.61.14,1.17.03,1.66-.11.46-.2,1.63-.27,3.51l-.09,2.76-.61.3c-.19.12-.34.18-.44.18-.13,0-.3-.24-.51-.74-.24-.57-.38-1.54-.4-2.92l-.02-.8s-.03-3.06-.08-9.07c-.05-5.78-.05-8.74.02-8.9.06-.15.33-.31.8-.48.11-.04.25-.06.42-.07.21,0,.39.24.53.74.16.53.34.8.53.79.13,0,.25-.14.36-.41.22-.69.58-1.04,1.09-1.05.07,0,.15.04.25.11.18.19.46.39.83.61.36.15.6.47.71.96.11.5.2.74.26.74.07,0,.23-.23.5-.7.27-.46.48-.87.64-1.22.14-.27.34-.41.61-.41.26,0,.39-.1.39-.29,0-.19.34-.29,1.03-.31.48.03.79.08.94.15.15.07.28.28.41.62.19.49.33.74.41.74ZM22.63,26.76c0-.23-.06-.34-.15-.34-.08,0-.12.12-.12.35,0,.19.05.29.13.28.1,0,.15-.1.14-.29Z"/>
      <path class="cls-4" d="M37.6,24.39c.11-.12.23-.18.34-.18.28,0,.63.52,1.04,1.59l.47,1.14-.02,5.05c0,1.84.01,2.98.02,3.44.06,2.87.34,4.85.86,5.95.29.65.44,1.04.44,1.2.04.15.08.51.13,1.06.05.55.09.91.11,1.06.02.08.03.19.03.34,0,.31-.19.62-.57.93-.34.31-.55.47-.63.47-.12,0-.32-.17-.63-.5-.42-.45-.66-.85-.71-1.19-.07-.3-.19-.46-.35-.45-.16,0-.29.14-.39.41-.16.43-.48.81-.99,1.14-.5.34-1.02.51-1.54.52h-.12c-1.1-.05-1.97-.68-2.6-1.9-.21-.42-.41-.98-.61-1.68-.2-.7-.31-1.25-.32-1.63l.02-.06s0-.08,0-.11c.04-.31.02-.52-.06-.63-.1-.15-.16-.49-.17-1.03,0-.46-.07-.92-.18-1.37-.07-.3-.17-2.16-.31-5.56-.08-2.14-.12-3.31-.12-3.5-.02-1.07.04-1.95.17-2.64.1-.5.21-.82.3-.95s.26-.23.49-.27c.03,0,.08,0,.13-.03.06-.02.09-.03.11-.03.21,0,.42.36.61,1.08.26.88.41,2.1.44,3.66,0,.5,0,.8-.06.92-.08.19-.1.42-.07.69.03.27.09.4.19.4.15,0,.19.28.14.86-.07.84-.09,1.42-.06,1.72.1,1.87.21,2.92.31,3.15.05.11.03.32-.06.63-.08.23-.02.5.16.8.19.26.26.65.22,1.14-.03.27,0,.46.06.57.07.11.23.21.47.28.08.04.22.05.42.05.67-.01,1.16-.42,1.45-1.24.16-.42.33-1.38.51-2.88.18-1.5.27-2.55.26-3.16,0-.15-.01-.25-.03-.29-.1-.23-.12-.38-.06-.46.01-.11.03-1.34.05-3.67,0-1.8.04-2.97.13-3.53.09-.56.28-.99.56-1.3Z"/>
      <path class="cls-4" d="M49.68,19.9c.03-.08.1-.12.19-.12.38,0,.69.24.95.73.14.3.3.45.48.45.26,0,.63.31,1.1.95.47.64.71,1.15.72,1.53,0,.19.1.5.29.91.17.34.33.9.49,1.68.15.78.24,1.44.25,1.97,0,.23,0,.38-.02.46-.05.54-.18,1-.39,1.39-.14.23-.26.35-.34.35-.11,0-.33-.28-.66-.85-.42-.72-.72-1.44-.88-2.16-.18-.69-.35-1.03-.51-1.02-.18,0-.27-.13-.28-.4,0-.23-.06-.23-.17,0-.08.12-.22.18-.42.18-.53.01-.85-.16-.97-.5-.07-.19-.26-.07-.56.35-.35.47-.63.7-.85.71-.33,0-.61.43-.85,1.28-.24.85-.35,1.73-.33,2.65,0,.46.05.84.12,1.15.2.91,1.09,1.37,2.69,1.38,1,.02,1.57.18,1.71.48.14.3.32.45.55.45.21,0,.35.11.42.34.05.15.13.21.24.17.11-.04.18.05.22.28.07.34.17.51.28.51.13,0,.2.09.2.28,0,.15.12.61.35,1.37.44,1.48.67,2.95.7,4.4.02.8-.04,1.42-.16,1.84-.08.27-.12.66-.12,1.18,0,.52-.1.89-.27,1.13-.14.16-.33.5-.55,1.04-.36.89-1.27,1.46-2.72,1.72-.33.08-.72.13-1.18.14-.51.01-.92-.08-1.24-.26-.5-.22-.79-.33-.87-.33-.02,0-.04,0-.07,0l-.02.06s-.05.06-.1.06c-.28,0-.79-.34-1.54-1.03-.74-.69-1.2-1.25-1.38-1.67-.33-.87-.5-1.84-.53-2.92,0-.23,0-.38.02-.46.04-.35.18-.52.41-.53.18,0,.33.01.44.05,1.1.21,1.74.48,1.91.82.27.53,1.06.78,2.35.75.49-.01.8-.11.93-.3.11-.23.23-.16.35.22.11.34.21.52.32.54s.18-.13.23-.44c.06-.27.19-.4.39-.41.2,0,.37.11.52.33.05.08.1.11.15.11.13,0,.19-.65.18-1.95-.02-.84-.05-1.36-.1-1.55-.05-.19-.22-.38-.5-.56-.47-.37-1.49-.66-3.07-.86-.64-.06-1.01-.21-1.12-.44-.09-.19-.21-.28-.38-.28-.16,0-.3-.18-.41-.57-.09-.38-.17-.49-.23-.34-.02.04-.04.06-.07.06-.13,0-.31-.26-.53-.79-.22-.53-.4-1.1-.53-1.71-.24-1.07-.37-2.27-.39-3.61-.01-.54.02-.86.08-.98.08-.12.11-.44.1-.98-.01-.5.02-.8.1-.92.08-.15.14-.6.19-1.32.05-.77.31-1.56.77-2.37.78-1.39,1.36-2.32,1.74-2.79s.82-.72,1.31-.77c.51-.09.78-.19.83-.3Z"/>
      <path class="cls-4" d="M59.02,10.71c.16-.08.39-.12.69-.13.89-.02,1.53.79,1.92,2.43.12.53.2,1.16.21,1.89.02,1.15-.1,2.25-.36,3.31-.27,1.06-.62,1.84-1.07,2.35-.34.39-.73.59-1.17.6-.05,0-.13,0-.23-.02-.11-.02-.19-.02-.26-.02-.46-.03-.77-.11-.93-.24-.16-.13-.34-.42-.55-.88-.43-.95-.66-2.15-.69-3.6,0-.5.02-.88.08-1.15.1-.58.29-1.24.55-1.99.26-.75.44-1.13.52-1.13.07,0,.19-.19.38-.58.16-.38.46-.66.92-.82ZM59.76,25.15c.09-.27.21-.41.34-.41.28,0,.57.39.89,1.19.31.8.47,1.62.47,2.46.01.65.12,2.43.33,5.33.3,4.28.46,6.96.48,8.03.02,1.11-.03,1.84-.15,2.18-.12.35-.36.52-.7.53-.38-.03-.66-.24-.84-.61s-.36-1.16-.55-2.34c-.19-1.18-.38-3.02-.57-5.53-.19-2.5-.31-4.69-.37-6.56l-.03-1.55c-.02-.92-.01-1.48.02-1.69.03-.21.11-.35.24-.43.2-.08.35-.27.46-.58ZM59.6,15.86c.07.15.13.15.18,0,.05-.15.02-.23-.09-.23-.13,0-.16.08-.09.23Z"/>
      <path class="cls-4" d="M67.82,44.96c-.15,0-.29-.1-.41-.31-.13-.21-.25-.31-.36-.31-.18,0-.31-.18-.38-.57-.06-.38-.23-1.03-.53-1.94-.26-.91-.4-1.67-.42-2.29-.01-.61-.05-.99-.12-1.15-.07-.11-.13-.71-.18-1.77-.04-1.95-.16-3.48-.36-4.58-.07-.38-.1-.69-.09-.92.03-.31-.01-.54-.11-.69-.05-.04-.08-.26-.09-.69-.01-.69.03-1.55.14-2.58.11-1.04.22-1.67.33-1.9.16-.27.23-.69.22-1.27-.01-.61.1-.94.33-.98.47-.12.94-.69,1.39-1.69.47-1.04.99-1.57,1.54-1.58.39,0,.89.21,1.49.66.67.52,1.02.78,1.07.78.02,0,.03.23.04.69.01.54.09.9.24,1.09.08.11.13.32.14.63,0,.46-.06,1-.2,1.61-.14.62-.26.98-.36,1.1-.11.16-.27.24-.49.24-.38,0-.68-.18-.9-.56-.19-.3-.37-.45-.55-.45-.26,0-.5.28-.72.82-.25.54-.38.93-.37,1.16,0,.11-.07.39-.22.84-.15.44-.22.8-.21,1.07.01.57-.01.9-.08.98-.14.16-.15.39,0,.69.1.23.16.63.17,1.2.01.54-.03,1.15-.11,1.84-.1.73-.07,1.28.08,1.66.14.38.25.99.33,1.83.07.76.16,1.32.29,1.66.13.34.35.66.65.96.2.19.36.28.47.28.15,0,.44-.16.88-.48.65-.47.99-.75,1.04-.83.09-.15.22-.64.38-1.44.16-.8.26-1.52.31-2.13.05-.61.15-1.3.28-2.07.13-.77.24-1.23.32-1.38.06-.12.2-.18.42-.18.46,0,.8.16,1.02.5.17.3.32.77.46,1.4.14.63.21,1.19.22,1.69,0,.5-.18,1.75-.57,3.74-.57,2.88-1.35,4.94-2.36,6.19-.38.47-.98.71-1.78.72-.94.02-1.52-.26-1.76-.83-.09-.3-.26-.45-.5-.45Z"/>
    </g>
  </g>
</svg>