<?xml version="1.0" encoding="UTF-8"?>
<svg id="Layer_2" data-name="Layer 2" xmlns="http://www.w3.org/2000/svg" viewBox="0 0 66.74 160.87">
  <defs>
    <style>
	@font-face {
    font-family: 'Monotony';
    src: url('Monotony-Regular.woff2') format('woff2'),
        url('Monotony-Regular.woff') format('woff'),
        url('Monotony-Regular.ttf') format('truetype');
    font-weight: normal;
    font-style: normal;
    font-display: swap;
}

      .cls-1 {
        stroke: #231f20;
        stroke-miterlimit: 10;
        stroke-width: 2px;
      }

      .cls-1, .cls-2, .cls-3, .cls-4 {
        fill: none;
      }

      .cls-2 {
        stroke-width: 10px;
      }

      .cls-2, .cls-3, .cls-4 {
        stroke-linecap: round;
        stroke-linejoin: round;
      }

      .cls-2, .cls-4 {
        stroke: #fff;
      }

      .cls-5 {
        fill: #fff;
      }

      .cls-3 {
        stroke: #a7a9ac;
        stroke-width: 9px;
      }

      .cls-4 {
        stroke-width: 13px;
      }
    </style>
  </defs>
  <g id="Layer_11_copy" data-name="Layer 11 copy">
    <path class="cls-4" d="M31.03,153.87l-.79-3.86,9.61-3.73-10.27.59-.93-3.82,4.33-1.93-21.69,3.74-1.06-3.83,10.94-4.24-1.26-3.36,9.08-4.47-9.41.92-.97-3.83c5.03-2.13,10.39-4.46,14.05-6.11-4.38,0-11.14.47-17.11,1.12l-1.25-3.7c3.66-2.22,7.58-4.63,10.54-6.48-4.29.02-10.4.17-16.1.38l-.85-3.84,14.46-6.09-12.31-2.29,14.88-10.2-17.58-2.2,18.57-8.47-12.33-5.75,12.23-6.79-12.4-4.33,13.5-6.75-15.26-2.69,1.25-.51-1.28-3.43,32.39-14.56-35.07,5.04-.89-3.89,33.08-10.42-28.99.88-.7-3.89L52.63,7.11l1.28,3.79-28.47,9.64,30.03-.91.66,3.91-23.45,7.39,24.83-3.57,1.1,3.8-17.51,7.87,7.36-2.21,1.33,3.77-23.8,9.72,13.54,2.39-15.86,7.93,11.88,4.15-13.18,7.32,13.08,6.11-13.62,6.21,14.04,1.76-15.61,10.7,15.93,2.96-16.82,7.08c12.67-.3,12.91.26,13.44,1.47l.54,1.25-.98,1.03c-.54.54-4.24,2.89-8.65,5.61,14.73-1.1,15.78.62,16.33,1.51.5.82.47,1.82-.09,2.67-.29.44-.58.89-8.04,4.2l7.59-.74,1.08,3.78-1.02.5,11.77-3.1,1.23,3.8-22.24,8.63,17.75-3.06,1.15,3.8-8.96,4,12.03-.69.84,3.86-10.32,4c2.94-.13,5.08-.26,5.56-.34-.58.1-1.42.72-1.5,1.77l1.96.14.64-1.92,1.37,2.21q-.28,1.95-19.83,2.58Z"/>
    <polygon class="cls-2" points="7.18 98.69 5 95.33 27.95 80.38 8.75 75.85 36.37 55.37 10.6 50.71 11.31 46.77 46.18 53.08 18.05 73.93 37.95 78.64 7.18 98.69"/>
    <path class="cls-5" d="M47.96,5c1.02,0,1.99.05,2.87.15,3.2.35,5.85,2.62,6.82,5.69,2.63,8.38,7.96,28.24-.38,29.33-26.12,3.41-24.28,27.7-24.56,61.08-.16,18.35,6.6,22.48,12.72,22.48.92,0,1.83-.09,2.7-.25.4-.07.8-.11,1.2-.11,3.34,0,6.27,2.47,6.67,5.91l2.09,17.88c.36,3.09-1.58,6-4.59,6.8-3.5.94-8.41,1.92-13.59,1.92-9.14,0-19.09-3.07-23.57-14.87-9.32-24.56-4.24-62.43-1.69-100.83C16.5,12.07,36.2,5,47.96,5M47.96,0c-3.99,0-14.27.79-23.49,8.13-6.13,4.88-13.67,14.34-14.82,31.7-.41,6.19-.89,12.44-1.36,18.49-2.49,32.3-4.84,62.81,3.37,84.44,4.49,11.84,14.26,18.1,28.25,18.1,5.84,0,11.31-1.14,14.88-2.09,5.36-1.43,8.91-6.68,8.27-12.21l-2.09-17.88c-.69-5.89-5.69-10.32-11.64-10.32-.69,0-1.39.06-2.07.18-.64.11-1.26.17-1.83.17-1.7,0-2.98-.49-4.02-1.54-1.42-1.43-3.78-5.4-3.7-15.9.02-2.31.03-4.58.04-6.8.13-31.58,1.04-46.87,20.17-49.37,2.79-.36,5.17-1.88,6.7-4.28,3.43-5.37,2.69-15.97-2.2-31.51-1.57-5-5.9-8.59-11.04-9.16-1.09-.12-2.24-.18-3.42-.18h0Z"/>
  </g>
  <g id="Layer_11" data-name="Layer 11">
    <path class="cls-3" d="M31.03,153.87l-.79-3.86,9.61-3.73-10.27.59-.93-3.82,4.33-1.93-21.69,3.74-1.06-3.83,10.94-4.24-1.26-3.36,9.08-4.47-9.41.92-.97-3.83c5.03-2.13,10.39-4.46,14.05-6.11-4.38,0-11.14.47-17.11,1.12l-1.25-3.7c3.66-2.22,7.58-4.63,10.54-6.48-4.29.02-10.4.17-16.1.38l-.85-3.84,14.46-6.09-12.31-2.29,14.88-10.2-17.58-2.2,18.57-8.47-12.33-5.75,12.23-6.79-12.4-4.33,13.5-6.75-15.26-2.69,21.17-8.65-20.45,3.07-.92-3.88,23.85-7.8-26.37,3.79-.89-3.89,33.08-10.42-28.99.88-.7-3.89L52.63,7.11l1.28,3.79-28.47,9.64,30.03-.91.66,3.91-23.45,7.39,24.83-3.57.91,3.88-23,7.53,13.33-2,1.05,3.83-23.8,9.72,13.54,2.39-15.86,7.93,11.88,4.15-13.18,7.32,13.08,6.11-13.62,6.21,14.04,1.76-15.61,10.7,15.93,2.96-16.82,7.08c12.67-.3,12.91.26,13.44,1.47l.54,1.25-.98,1.03c-.54.54-4.24,2.89-8.65,5.61,14.73-1.1,15.78.62,16.33,1.51.5.82.47,1.82-.09,2.67-.29.44-.58.89-8.04,4.2l7.59-.74,1.08,3.78-1.02.5,11.77-3.1,1.23,3.8-22.24,8.63,17.75-3.06,1.15,3.8-8.96,4,12.03-.69.84,3.86-10.32,4c2.94-.13,5.08-.26,5.56-.34-.58.1-1.42.72-1.5,1.77l1.96.14.64-1.92,1.37,2.21q-.28,1.95-19.83,2.58Z"/>
    <polyline class="cls-3" points="10.96 48.74 43.36 52.68 12.01 75.92 33.22 80.44 7.33 95.86"/>
    <path class="cls-1" d="M39.91,157.87c-12.63,0-21.43-5.59-25.44-16.17-7.97-21.01-5.64-51.19-3.18-83.15.47-6.06.95-12.32,1.36-18.52C14.46,12.7,32.8,3,47.96,3c1.07,0,2.11.06,3.09.16,3.95.44,7.29,3.21,8.5,7.08,3.17,10.08,6.18,23.28,2.53,28.99-1.06,1.66-2.63,2.66-4.56,2.92-22.58,2.95-22.66,22.59-22.79,52.33,0,2.21-.02,4.48-.04,6.78-.07,8.84,1.46,14.9,4.57,18.04,1.62,1.63,3.63,2.43,6.15,2.43.74,0,1.53-.07,2.35-.22.51-.09,1.03-.14,1.55-.14,4.42,0,8.14,3.3,8.66,7.67l2.09,17.88c.48,4.06-2.13,7.92-6.06,8.97-3.39.91-8.59,1.99-14.1,1.99Z"/>
  </g>
</svg>