<svg xmlns="http://www.w3.org/2000/svg" xml:space="preserve" width="71.412" height="50" viewBox="0 0 71.412 50"><path d="M60.701 0s-38 0-47.5 2.5c-5.1 1.4-9.3 5.601-10.7 10.801C0 22.801 0 42.5 0 42.5s0 19.802 2.5 29.202A15.21 15.21 0 0 0 13.201 82.4c9.6 2.6 47.5 2.6 47.5 2.6s38 0 47.5-2.5C113.401 81.1 117.5 77 118.9 71.8c2.5-9.5 2.5-29.202 2.5-29.202s.1-19.798-2.5-29.298A15.21 15.21 0 0 0 108.201 2.6c-9.5-2.6-47.5-2.6-47.5-2.6M48.6 24.301 80.202 42.5 48.599 60.7z" style="fill:#000;fill-opacity:1" transform="scale(.58824)"/></svg>