<?xml version="1.0" encoding="UTF-8"?>
<svg id="Layer_2" data-name="Layer 2" xmlns="http://www.w3.org/2000/svg" viewBox="0 0 101.04 65.99">
  <defs>
    <style>
      .cls-1, .cls-2 {
        fill: #231f20;
      }

      .cls-2 {
        font-family: Monotony-Regular, Monotony;
        font-size: 36px;
      }

      .cls-3 {
        fill: #e44699;
        stroke: #f6aacb;
        stroke-linecap: round;
        stroke-linejoin: round;
        stroke-width: 11px;
      }
    </style>
  </defs>
  <g id="Layer_1-2" data-name="Layer 1">
    <g id="Layer_2-2" data-name="Layer 2">
      <polyline class="cls-3" points="15.05 25.06 66.47 6.63 5.5 41.32 78.74 9.88 26.2 52.04 92.02 19.09 43.27 59.36 91.24 36.32"/>
      <line class="cls-3" x1="68.78" y1="14.16" x2="29.38" y2="40.12"/>
    </g>
    <path class="cls-1" d="M56.86,2c.99,0,1.98.02,2.95.05,15.19.57,26.57,4.6,32.91,11.67,4.74,5.28,6.83,12.36,6.22,21.05-.86,12.12-6.78,20.18-18.11,24.66-10.17,4.02-23.3,4.56-34.81,4.56-2.15,0-4.26-.02-6.29-.04-.93,0-1.84-.02-2.74-.02-9.81-.07-17.34-2.94-22.38-8.53-5.62-6.24-7.99-15.72-6.84-27.41C9.44,11.11,34.3,2,56.86,2M56.86,0C34.28,0,7.62,9.17,5.79,27.8c-2.06,21.01,6.81,37.97,31.19,38.13,2.86.02,5.9.06,9.04.06,23.61,0,52.87-2.17,54.92-31.07C102.59,11.54,85.54,1.01,59.88.06c-1-.04-2.01-.06-3.02-.06h0Z"/>
    <text class="cls-2" transform="translate(20.52 46.14) scale(.98 1)"><tspan x="0" y="0">art</tspan></text>
  </g>
</svg>