<?xml version="1.0" encoding="UTF-8"?>
<svg id="Layer_2" data-name="Layer 2" xmlns="http://www.w3.org/2000/svg" viewBox="0 0 87.8 62.59">
  <defs>
    <style>
      .cls-1 {
        stroke: #231f20;
        stroke-width: 2px;
      }

      .cls-1, .cls-2 {
        fill: none;
        stroke-miterlimit: 10;
      }

      .cls-2 {
        stroke: #91cff1;
        stroke-linecap: round;
        stroke-width: 12px;
      }

      .cls-3 {
        fill: #231f20;
        font-family: Monotony-Regular, Monotony;
        font-size: 57.38px;
      }
    </style>
  </defs>
  <g id="Layer_3" data-name="Layer 3">
    <path class="cls-2" d="M26.62,7.64S4.51,42.17,9.82,42.48,31.42,14.34,37.83,14.05,5.24,51.42,11.46,50.61,46.4,6.48,49.11,14.05s-28.55,30.01-18.75,29.49,16.58-27.62,25.79-22.47-10.8,14.49-8.34,21.09,25.21-4.54,25.14-11.04"/>
    <path class="cls-1" d="M15.07,21.76C25.1,14.44,32.78,3.44,41.85,2.66c8.5-.72,31.88,13.1,42.44,26.36,5.71,7.17,1.13,17.83-8,18.68-29.6,2.76-106.79,7.32-61.21-25.95Z"/>
    <text class="cls-3" transform="translate(13.46 51.11) rotate(-1.15) scale(.43 1)"><tspan x="0" y="0">music</tspan></text>
  </g>
</svg>