<?xml version="1.0" encoding="UTF-8"?>
<svg id="Layer_2" data-name="Layer 2" xmlns="http://www.w3.org/2000/svg" viewBox="0 0 59.94 152.87">
  <defs>
    <style>
      .cls-1 {
        stroke: #231f20;
        stroke-miterlimit: 10;
        stroke-width: 2px;
      }

      .cls-1, .cls-2 {
        fill: none;
      }

      .cls-2 {
        stroke: #a7a9ac;
        stroke-linecap: round;
        stroke-linejoin: round;
        stroke-width: 9px;
      }
    </style>
  </defs>
  <g id="Layer_11" data-name="Layer 11">
    <path class="cls-2" d="M50.44,5L9.26,18.94l43.44-1.32L5.83,32.39l49.13-7.06-45.7,14.95,36.95-5.55-30.21,12.34,7.88,1.39,6.52,1.15-14.68,7.34,12.14,4.24-12.71,7.06,12.71,5.93-16.09,7.34,15.81,1.98-15.25,10.45,14.12,2.63-20.61,8.68s23.15-.86,22.31,0-15.63,9.82-15.63,9.82c0,0,24.95-2.71,22.98.29-.47.72-18.92,8.52-18.92,8.52l20.33-1.98-18.92,9.32,31.06-8.19-40.9,15.87,37.47-6.46-18.96,8.45,22.95-1.32-21.46,8.32s18.73-.61,17.88-.89"/>
    <polyline class="cls-2" points="8.13 44.74 40.54 48.68 9.19 71.92 30.4 76.44 4.5 91.86"/>
    <path class="cls-1" d="M54.83,6.84c-.96-3.07-3.62-5.33-6.82-5.69C36.94-.07,13.84,5.62,11.82,36.17c-2.54,38.4-7.62,76.27,1.69,100.83,7.02,18.5,27.48,15.54,37.16,12.95,3.01-.8,4.95-3.71,4.59-6.8l-2.09-17.88c-.45-3.85-4.05-6.47-7.87-5.8-6.62,1.17-15.59-1.12-15.41-22.23.28-33.38-1.55-57.67,24.56-61.08,8.33-1.09,3.01-20.95.38-29.33Z"/>
  </g>
</svg>